<?xml version="1.0" encoding="UTF-8" standalone="no"?>
<!-- Creator: CorelDRAW -->
<svg
   xmlns:dc="http://purl.org/dc/elements/1.1/"
   xmlns:cc="http://web.resource.org/cc/"
   xmlns:rdf="http://www.w3.org/1999/02/22-rdf-syntax-ns#"
   xmlns:svg="http://www.w3.org/2000/svg"
   xmlns="http://www.w3.org/2000/svg"
   xmlns:sodipodi="http://sodipodi.sourceforge.net/DTD/sodipodi-0.dtd"
   xmlns:inkscape="http://www.inkscape.org/namespaces/inkscape"
   xml:space="preserve"
   width="256.9mm"
   height="268.9mm"
   style="shape-rendering:geometricPrecision; text-rendering:geometricPrecision; image-rendering:optimizeQuality; fill-rule:evenodd; clip-rule:evenodd"
   viewBox="0 0 256.9 268.9"
   id="svg2"
   sodipodi:version="0.32"
   inkscape:version="0.45.1"
   sodipodi:docname="Escudo Comando General de las Fuerzas Militares-inscape.svg"
   inkscape:output_extension="org.inkscape.output.svg.inkscape"
   sodipodi:docbase="C:\Documents and Settings\Administrador\Mis documentos\Mis imágenes"><metadata
   id="metadata307"><rdf:RDF><cc:Work
       rdf:about=""><dc:format>image/svg+xml</dc:format><dc:type
         rdf:resource="http://purl.org/dc/dcmitype/StillImage" /></cc:Work></rdf:RDF></metadata><sodipodi:namedview
   inkscape:window-height="721"
   inkscape:window-width="1024"
   inkscape:pageshadow="2"
   inkscape:pageopacity="0.0"
   guidetolerance="10.0"
   gridtolerance="10.0"
   objecttolerance="10.0"
   borderopacity="1.0"
   bordercolor="#666666"
   pagecolor="#ffffff"
   id="base"
   inkscape:zoom="0.39672743"
   inkscape:cx="455.13779"
   inkscape:cy="476.39761"
   inkscape:window-x="-4"
   inkscape:window-y="-4"
   inkscape:current-layer="svg2" />
 <defs
   id="defs4">
  <style
   type="text/css"
   id="style6">
   
    .str3 {stroke:black;stroke-width:0.35}
    .str2 {stroke:black;stroke-width:0.35;stroke-linejoin:round}
    .str1 {stroke:black;stroke-width:0.4;stroke-linejoin:round}
    .str5 {stroke:black;stroke-width:0.4;stroke-linecap:round;stroke-linejoin:round}
    .str0 {stroke:black;stroke-width:0.5;stroke-linejoin:round}
    .str4 {stroke:black;stroke-width:1.1;stroke-linejoin:round}
    .fil4 {fill:none}
    .fil8 {fill:black}
    .fil6 {fill:#003ADF}
    .fil0 {fill:#0071BC}
    .fil5 {fill:#666666}
    .fil2 {fill:#EAC102}
    .fil3 {fill:#ED1C24}
    .fil7 {fill:#FFC81F}
    .fil1 {fill:black;fill-rule:nonzero}
   
  </style>
 </defs>
 <g
   id="fondo_x0020_cinta">
  <metadata
   id="CorelCorpID_0Corel-Layer" />
  <path
   class="fil0"
   d="M189.231 244.788c-5.243,-0.0847 -16.1044,1.7645 -20.9563,1.6277 -10.907,-0.309 -11.7069,-3.4715 -17.9724,-5.1584 -5.9492,-1.6018 -14.1867,-1.191 -14.1875,2.2386 0.0036,0.0859 0.0073,0.1717 0.0115,0.258 0.2436,2.624 4.2348,2.2374 4.837,4.1202 0.088,0.274 0.1315,0.5357 0.1336,0.7855 0.0024,0.0136 0.0024,0.0271 0.0024,0.0407 0.1754,2.9197 0.4725,5.8962 0.8919,8.9273 2.6269,-0.1734 5.6518,-0.3809 8.3,0.3319 6.2651,1.6865 7.0346,4.4246 17.942,4.7336 4.8515,0.1368 15.7133,-1.7124 20.9563,-1.6273 5.5856,0.0904 8.9992,1.7074 15.2052,1.6227 2.0676,-0.0283 6.1381,-0.6404 9.0106,-1.3791 -4.9225,-1.3997 -5.275,-3.1391 -11.7336,-4.3174 3.135,-0.7173 6.9056,-1.8101 10.6145,-3.0705 -3.7048,-1.3418 -6.6192,-2.2949 -10.87,-3.4912 4.2984,-0.9441 8.2958,-3.0521 10.3397,-4.7927 -11.4913,2.1067 -15.0774,-0.7288 -22.5249,-0.8496z"
   id="path10" />
  <path
   class="fil0"
   d="M128.492 253.563c-1.5345,-0.0004 -5.1682,-0.2838 -8.1426,-1.184 -2.4387,-0.7374 -4.4337,-1.8894 -4.4645,-3.6391 -0.1783,2.907 -0.4749,5.8707 -0.8919,8.8879 -0.1619,1.1741 -0.3426,2.3561 -0.5415,3.5462 -0.2699,1.6027 0.0617,3.0295 1.3615,3.8651 3.2078,2.064 8.3283,3.0997 12.679,3.1038 4.3494,-0.0041 9.4732,-1.0398 12.6814,-3.1038 1.2982,-0.8356 1.6293,-2.2624 1.3606,-3.8651 -0.1996,-1.1901 -0.3804,-2.3721 -0.5435,-3.5462 -0.4194,-3.0311 -0.7165,-6.0076 -0.8919,-8.9273 -0.0012,1.7715 -2.0077,2.9353 -4.4644,3.6785 -2.9744,0.9002 -6.6086,1.1836 -8.1422,1.184z"
   id="path12" />
  <path
   class="fil0"
   d="M141.099 248.7l-0.0024 -0.0407c0.0008,0.0136 0.0016,0.0271 0.0024,0.0407zm-4.973 -4.9464c0.1331,2.7899 0.5086,5.9381 0.5086,8.6249 2.4567,-0.7432 4.4632,-1.907 4.4644,-3.6785 0,-0.0136 0,-0.0271 -0.0024,-0.0407 -0.0021,-0.2498 -0.0456,-0.5115 -0.1336,-0.7855 -0.6022,-1.8828 -4.5934,-1.4962 -4.837,-4.1202z"
   id="path14" />
  <path
   class="fil0"
   d="M120.857 243.755c-0.244,2.6232 -4.2352,2.2366 -4.8362,4.1194 -0.097,0.3036 -0.1405,0.592 -0.1356,0.8656 0.0308,1.7493 2.0258,2.9017 4.4645,3.6391 0,-2.6864 0.3742,-5.8345 0.5073,-8.6241z"
   id="path16" />
  <path
   class="fil0"
   d="M106.68 241.257c-6.2622,1.6869 -7.0642,4.8494 -17.9692,5.1584 -4.8522,0.1368 -15.7133,-1.7124 -20.9571,-1.6277 -7.4475,0.1208 -11.0368,2.9563 -22.5232,0.8496 2.0414,1.7411 6.0392,3.849 10.3385,4.7927 -4.2541,1.1963 -7.1615,2.1494 -10.8705,3.4916 3.7127,1.2604 7.4791,2.3524 10.6104,3.0701 -6.4549,1.1783 -6.8061,2.9173 -11.7295,4.3174 2.8717,0.7387 6.9442,1.3508 9.0119,1.3787 6.2035,0.0851 9.6179,-1.5319 15.2052,-1.6223 5.2417,-0.0851 16.1027,1.7645 20.9554,1.6273 10.9054,-0.309 11.6753,-3.0471 17.9421,-4.7336 2.6502,-0.7128 5.6727,-0.5057 8.2991,-0.3319 0.417,-3.0172 0.7136,-5.9809 0.8919,-8.8879 -0.0049,-0.2736 0.0386,-0.562 0.1356,-0.8656 0.601,-1.8828 4.5922,-1.4962 4.8362,-4.1194 0.0042,-0.0866 0.0079,-0.1729 0.0116,-0.2588 0,-3.4296 -8.2367,-3.8404 -14.1884,-2.2386z"
   id="path18" />
  <path
   class="fil1"
   d="M74.8679 256.946m4.3083 0.5644l-1.5018 -0.1968 0 -5.3296c-0.5493,0.4124 -1.1953,0.6851 -1.9398,0.8177l0 -1.2831c0.3906,-0.069 0.8176,-0.2415 1.2774,-0.5179 0.4598,-0.2781 0.7756,-0.6301 0.9452,-1.0579l1.219 0.1597 0 7.4079zm1.8408 0.2601m1.7641 -3.8357c-0.3911,-0.1865 -0.6756,-0.4227 -0.8517,-0.7067 -0.1781,-0.2842 -0.2662,-0.5885 -0.2662,-0.9097 0,-0.5496 0.2037,-0.9882 0.6149,-1.3136 0.4112,-0.3254 0.995,-0.4582 1.7513,-0.3966 0.749,0.0611 1.3309,0.289 1.7439,0.6817 0.4149,0.3927 0.6224,0.8648 0.6224,1.4144 0,0.3418 -0.0955,0.638 -0.2865,0.8904 -0.1891,0.2508 -0.457,0.4334 -0.8003,0.5462 0.437,0.1988 0.7691,0.4663 0.9968,0.801 0.2277,0.3328 0.3415,0.7062 0.3415,1.1184 0,0.6819 -0.2313,1.2161 -0.6959,1.6042 -0.4643,0.3881 -1.0811,0.5507 -1.8522,0.4878 -0.7177,-0.0585 -1.3143,-0.2823 -1.7917,-0.6734 -0.5634,-0.4632 -0.8443,-1.0564 -0.8443,-1.7812 0,-0.3984 0.1064,-0.7556 0.3176,-1.0733 0.211,-0.316 0.5451,-0.5465 1.0004,-0.6896zm0.3121 -1.3985c0,0.2817 0.0844,0.5085 0.2551,0.6787 0.1707,0.1719 0.3966,0.2693 0.6811,0.2925 0.2864,0.0234 0.5158,-0.0369 0.6883,-0.1826 0.1707,-0.1458 0.2571,-0.3586 0.2571,-0.6403 0,-0.2662 -0.0844,-0.4843 -0.2552,-0.658 -0.1707,-0.1737 -0.3946,-0.2709 -0.6755,-0.2938 -0.29,-0.0237 -0.5213,0.0381 -0.6939,0.1839 -0.1707,0.1474 -0.257,0.3534 -0.257,0.6196zm-0.1396 3.1472c0,0.3899 0.1066,0.7026 0.3195,0.9382 0.2129,0.2354 0.4792,0.3653 0.7985,0.3914 0.312,0.0254 0.5709,-0.0583 0.7747,-0.2511 0.2037,-0.193 0.3066,-0.4868 0.3066,-0.8836 0,-0.3452 -0.1046,-0.6321 -0.3121,-0.8585 -0.2075,-0.2265 -0.4717,-0.3528 -0.7912,-0.3788 -0.369,-0.0301 -0.6443,0.0677 -0.8243,0.29 -0.1817,0.224 -0.2717,0.4742 -0.2717,0.7524zm4.2125 2.6023m4.348 -0.1415l-1.5156 0.0493 0 -5.3296c-0.5544,0.5024 -1.2062,0.8809 -1.9577,1.1355l0 -1.2831c0.3942,-0.133 0.8251,-0.3754 1.2892,-0.7272 0.4641,-0.3534 0.7826,-0.7572 0.9539,-1.2128l1.2302 -0.04 0 7.4079zm1.8012 -0.0647m2.9156 -8.1872c0.7387,-0.1974 1.3142,-0.0952 1.7289,0.3041 0.4942,0.4707 0.7421,1.4058 0.7421,2.8056 0,1.3947 -0.2498,2.4645 -0.7475,3.209 -0.411,0.613 -0.9848,1.0172 -1.7235,1.2146 -0.7387,0.1975 -1.3355,0.0822 -1.789,-0.3497 -0.4535,-0.4301 -0.6803,-1.3537 -0.6803,-2.769 0,-1.3895 0.2498,-2.4559 0.7475,-3.1986 0.411,-0.6131 0.9849,-1.019 1.7218,-1.216zm0 1.1731c-0.1753,0.0469 -0.333,0.144 -0.4712,0.2892 -0.1381,0.1468 -0.2462,0.3715 -0.3224,0.6735 -0.0991,0.3924 -0.1504,1.021 -0.1504,1.8867 0,0.8656 0.0459,1.4476 0.1345,1.7468 0.0903,0.3004 0.2036,0.4849 0.3401,0.5567 0.1381,0.0695 0.2941,0.0828 0.4694,0.0359 0.1771,-0.0473 0.3347,-0.1444 0.4729,-0.2913 0.1382,-0.1451 0.2462,-0.3698 0.3224,-0.6718 0.0992,-0.3889 0.1506,-1.0159 0.1506,-1.8815 0,-0.8657 -0.0461,-1.4476 -0.1346,-1.7486 -0.0904,-0.2988 -0.2038,-0.4848 -0.3401,-0.5583 -0.1382,-0.0713 -0.2941,-0.0846 -0.4712,-0.0373z"
   id="path20" />
 </g>
 <g
   id="cinta">
  <metadata
   id="CorelCorpID_1Corel-Layer" />
  <path
   class="fil2"
   d="M128.492 65.3168l0 -5.9167c26.8664,-1.7756 25.6003,-11.4111 44.3106,-9.3952 -2.1113,2.0899 -4.2903,3.338 -5.3868,5.6427 16.7552,-3.2011 26.1529,5.3888 33.86,11.557 -6.7984,5.1727 -19.0875,5.9291 -28.7764,4.0508 0.8742,1.7936 1.3545,4.5371 0.4387,6.7437 -3.8502,-4.409 -8.7206,-6.761 -13.4981,-8.1134 0.7103,1.6055 1.6803,4.5614 0.9638,8.1216 -13.1892,-6.2392 -23.556,-6.98 -31.9118,-6.98l0 -5.7105z"
   id="path24" />
  <path
   class="fil2"
   d="M128.492 65.3168l0 -5.9167c-26.8665,-1.7756 -25.6003,-11.4111 -44.3106,-9.3952 2.1112,2.0899 4.2902,3.338 5.3867,5.6427 -16.7551,-3.2011 -26.1528,5.3888 -33.8599,11.557 6.7983,5.1727 19.0874,5.9291 28.7764,4.0508 -0.8743,1.7936 -1.3545,4.5371 -0.4388,6.7437 3.8503,-4.409 8.7206,-6.761 13.4981,-8.1134 -0.7103,1.6055 -1.6802,4.5614 -0.9638,8.1216 13.1892,-6.2392 23.5561,-6.98 31.9119,-6.98l0 -5.7105z"
   id="path26" />
  <path
   class="fil3"
   d="M214.718 178.646c2.5657,2.3093 11.3348,17.2634 4.4682,28.6589 -4.9418,8.201 -17.1775,9.9162 -22.2611,6.3539 0.0021,0.0016 0.0045,0.0029 0.0066,0.0045 5.1382,3.7426 12.0142,6.6661 20.8211,5.6518 7.4241,-0.8554 19.3101,-9.8463 25.7268,-22.1034 3.829,-7.3131 7.4315,-11.0705 12.5915,-14.9894 -2.5973,-0.9996 -6.2249,-1.1372 -8.311,0.2226 1.6314,-3.4871 3.6267,-7.8887 1.9214,-16.7913 -1.5755,2.1914 -3.6913,5.2726 -6.4952,6.5745 0.6877,-2.0767 2.4921,-13.5902 -5.8206,-25.0284 -8.9453,9.7148 -8.0875,21.0639 -7.5419,27.7727 -1.3237,-2.997 -4.7394,-5.7524 -7.3604,-6.5769 -0.9511,5.1123 -0.1574,7.2618 1.7452,12.5516 -2.1824,-2.8672 -6.8247,-2.7098 -9.4906,-2.3011z"
   id="path28" />
  <g
   id="_39079184">
   <path
   id="_39081080"
   class="fil3"
   d="M42.2661 178.646c-2.5656,2.3093 -11.3347,17.2634 -4.4682,28.6589 4.9419,8.201 17.1776,9.9162 22.2611,6.3539 -0.002,0.0016 -0.0045,0.0029 -0.0065,0.0045 -5.1383,3.7426 -12.0143,6.6661 -20.8212,5.6518 -7.424,-0.8554 -19.3101,-9.8463 -25.7268,-22.1034 -3.8289,-7.3131 -7.4315,-11.0705 -12.5914,-14.9894 2.5972,-0.9996 6.2248,-1.1372 8.311,0.2226 -1.6314,-3.4871 -3.6268,-7.8887 -1.9215,-16.7913 1.5756,2.1914 3.6913,5.2726 6.4952,6.5745 -0.6877,-2.0767 -2.4921,-13.5902 5.8206,-25.0284 8.9454,9.7148 8.0876,21.0639 7.542,27.7727 1.3237,-2.997 4.7393,-5.7524 7.3604,-6.5769 0.951,5.1123 0.1573,7.2618 -1.7452,12.5516 2.1823,-2.8672 6.8246,-2.7098 9.4905,-2.3011z" />
   <path
   id="_39080288"
   class="fil3"
   d="M60.059 213.659l-0.0065 0.0045c0.002,-0.0016 0.0045,-0.0029 0.0065,-0.0045zm-8.6126 -22.068c-2.8433,1.8356 -10.5516,-1.4642 -10.0336,-1.6483 15.6069,-5.5404 21.6284,-34.493 23.7988,-45.6815l0 64.9074c-1.4666,1.4971 -3.1773,3.0496 -5.1423,4.483 -0.0037,0.0025 -0.007,0.0049 -0.0103,0.0074 -0.0024,0.0012 -0.0045,0.0029 -0.0065,0.0045 -5.0877,3.5561 -17.3148,1.8389 -22.2546,-6.3584 7.9126,-1.1141 11.7411,-7.7223 13.6485,-15.7141z" />
  </g>
  <path
   class="fil3"
   d="M196.925 213.659l0.0066 0.0045c-0.0021,-0.0016 -0.0045,-0.0029 -0.0066,-0.0045zm8.6126 -22.068c2.8433,1.8356 10.5517,-1.4642 10.0336,-1.6483 -15.6069,-5.5404 -21.6284,-34.493 -23.7988,-45.6815l0 64.9074c1.4667,1.4971 3.1774,3.0496 5.1423,4.483 0.0037,0.0025 0.007,0.0049 0.0103,0.0074 0.0025,0.0012 0.0045,0.0029 0.0066,0.0045 5.0877,3.5561 17.3147,1.8389 22.2545,-6.3584 -7.9125,-1.1141 -11.741,-7.7223 -13.6485,-15.7141z"
   id="path33" />
  <g
   id="_39073800">
   <path
   id="_39077344"
   class="fil4 str0"
   d="M211.756 245.638c-11.4912,2.1068 -15.0775,-0.729 -22.525,-0.8496 -5.2428,-0.0849 -16.1046,1.7644 -20.9562,1.6275 -10.9073,-0.309 -11.7071,-3.4713 -17.9725,-5.1584 -5.9494,-1.6017 -14.1868,-1.1909 -14.1874,2.2387 -0.0005,2.9087 4.2272,2.436 4.8484,4.3784 1.4757,4.6117 -9.4836,5.6881 -12.4706,5.6886" />
   <path
   id="_39076224"
   class="fil4 str0"
   d="M141.097 248.66c0.2421,4.0634 0.7208,8.2374 1.4379,12.5139 0.2684,1.6028 -0.0625,3.0298 -1.3607,3.8651 -3.2083,2.064 -8.3322,3.0999 -12.6815,3.1037" />
   <path
   id="_39075472"
   class="fil4 str0"
   d="M141.991 257.627c2.6265,-0.1736 5.6514,-0.3807 8.2998,0.332 6.2649,1.6866 7.0346,4.4249 17.9418,4.7338 4.8517,0.137 15.7135,-1.7123 20.9562,-1.6274 5.5857,0.0904 8.9994,1.7074 15.2051,1.6225 2.0679,-0.0279 6.1384,-0.6403 9.0109,-1.3787 -4.9228,-1.4001 -5.275,-3.1393 -11.7333,-4.3176 3.1349,-0.7176 6.9052,-1.8098 10.6142,-3.0703 -3.7046,-1.342 -6.6193,-2.2951 -10.87,-3.4915 4.2984,-0.9438 8.296,-3.0516 10.3398,-4.7925" />
   <path
   id="_39073920"
   class="fil4 str0"
   d="M136.114 243.496c0.1211,2.8523 0.5199,6.1132 0.5199,8.8828" />
  </g>
  <g
   id="_39067952">
   <path
   id="_39072768"
   class="fil4 str0"
   d="M45.2289 245.638c11.4912,2.1068 15.0774,-0.729 22.525,-0.8496 5.2427,-0.0849 16.1045,1.7644 20.9562,1.6275 10.9073,-0.309 11.707,-3.4713 17.9724,-5.1584 5.9494,-1.6017 14.1869,-1.1909 14.1874,2.2387 0.0005,2.9087 -4.2272,2.436 -4.8484,4.3784 -1.4757,4.6117 9.4837,5.6881 12.4707,5.6886" />
   <path
   id="_39066752"
   class="fil4 str0"
   d="M115.888 248.66c-0.2421,4.0634 -0.7209,8.2374 -1.4379,12.5139 -0.2684,1.6028 0.0624,3.0298 1.3607,3.8651 3.2083,2.064 8.3321,3.0999 12.6815,3.1037" />
   <path
   id="_39068840"
   class="fil4 str0"
   d="M114.993 257.627c-2.6266,-0.1736 -5.6514,-0.3807 -8.2999,0.332 -6.2649,1.6866 -7.0345,4.4249 -17.9418,4.7338 -4.8516,0.137 -15.7134,-1.7123 -20.9562,-1.6274 -5.5856,0.0904 -8.9994,1.7074 -15.2051,1.6225 -2.0678,-0.0279 -6.1384,-0.6403 -9.0109,-1.3787 4.9229,-1.4001 5.2751,-3.1393 11.7333,-4.3176 -3.1349,-0.7176 -6.9052,-1.8098 -10.6142,-3.0703 3.7046,-1.342 6.6193,-2.2951 10.87,-3.4915 -4.2983,-0.9438 -8.296,-3.0516 -10.3397,-4.7925" />
   <path
   id="_39068072"
   class="fil4 str0"
   d="M120.87 243.496c-0.1211,2.8523 -0.5198,6.1132 -0.5198,8.8828" />
  </g>
  <path
   class="fil1"
   d="M166.302 258.324c0.6067,-0.0363 1.1795,-0.1676 1.7151,-0.3993 0.5357,-0.2289 1.0326,-0.5289 1.4939,-0.9003 0.461,-0.3713 0.8822,-0.7846 1.263,-1.2428 0.4247,0.4177 0.8851,0.7866 1.3812,1.1098 0.4962,0.3232 1.0207,0.5719 1.5767,0.7459 0.5561,0.1768 1.139,0.2498 1.7464,0.2252 0.3502,-0.0176 0.6981,-0.0848 1.0406,-0.1987 0.3451,-0.1167 0.6705,-0.2795 0.973,-0.4907 0.3053,-0.2114 0.5732,-0.4707 0.8037,-0.7749 0.2304,-0.3071 0.4059,-0.6583 0.5264,-1.0535 0.1233,-0.3983 0.1713,-0.8396 0.1498,-1.3272 -0.0275,-0.4872 -0.1196,-0.9215 -0.2823,-1.3054 -0.1597,-0.3841 -0.3697,-0.7188 -0.6297,-1.0012 -0.26,-0.2825 -0.5525,-0.5136 -0.8777,-0.6962 -0.3222,-0.1799 -0.6623,-0.312 -1.0175,-0.3936 -0.3524,-0.0817 -0.7052,-0.1137 -1.0553,-0.0961 -0.6067,0.0363 -1.1794,0.1704 -1.7149,0.4023 -0.5355,0.2346 -1.0322,0.5376 -1.4933,0.9119 -0.461,0.3743 -0.8821,0.7876 -1.2628,1.2457 -0.4248,-0.4176 -0.8853,-0.7866 -1.3815,-1.1128 -0.4964,-0.326 -1.0209,-0.5776 -1.5772,-0.7574 -0.5561,-0.1769 -1.1392,-0.2529 -1.7466,-0.2282 -0.3502,0.0176 -0.6952,0.0847 -1.0404,0.2016 -0.3451,0.1168 -0.6675,0.2823 -0.9729,0.4937 -0.3052,0.2142 -0.5732,0.4736 -0.8034,0.7806 -0.2275,0.3071 -0.4057,0.6613 -0.5261,1.0594 -0.1204,0.3981 -0.1713,0.8396 -0.1498,1.3272 0.0271,0.4785 0.119,0.9099 0.2756,1.2912 0.1597,0.3811 0.3666,0.713 0.6206,0.9929 0.257,0.2826 0.5467,0.5138 0.869,0.6966 0.3222,0.1827 0.6624,0.3148 1.0206,0.3963 0.3583,0.0844 0.7169,0.1161 1.0758,0.098zm-0.1239 -1.7669c-0.3475,0.0145 -0.6666,-0.0455 -0.9516,-0.1863 -0.288,-0.1406 -0.5207,-0.3453 -0.6984,-0.6203 -0.1776,-0.2748 -0.2789,-0.6033 -0.3015,-0.9913 -0.0165,-0.3884 0.0514,-0.7254 0.2005,-1.0167 0.1493,-0.2913 0.3603,-0.5185 0.6326,-0.6872 0.2695,-0.1687 0.5809,-0.2605 0.9282,-0.2808 0.4612,-0.0203 0.9006,0.0483 1.3179,0.2 0.4142,0.1488 0.8081,0.3602 1.1814,0.6253 0.3704,0.2681 0.719,0.5636 1.0456,0.8925 -0.5597,0.6836 -1.1134,1.1913 -1.6643,1.5261 -0.5509,0.3321 -1.1153,0.5127 -1.6904,0.5387zm11.0075 -2.4498c0.0165,0.3884 -0.0514,0.7254 -0.2006,1.0167 -0.1492,0.2913 -0.3602,0.5184 -0.6325,0.6873 -0.2696,0.1686 -0.5809,0.2604 -0.9282,0.2807 -0.4612,0.0203 -0.9005,-0.0454 -1.3148,-0.1943 -0.417,-0.1488 -0.8108,-0.3571 -1.1813,-0.6252 -0.3732,-0.2651 -0.7219,-0.5665 -1.0488,-0.8983 0.2918,-0.3658 0.6087,-0.6977 0.9534,-0.9989 0.3417,-0.3039 0.7126,-0.5509 1.1126,-0.7406 0.3973,-0.1897 0.8277,-0.2992 1.2886,-0.3253 0.3387,-0.017 0.6491,0.0435 0.9365,0.1754 0.2875,0.1318 0.5231,0.3364 0.7036,0.6083 0.1834,0.2716 0.2882,0.6116 0.3115,1.0142z"
   id="path45" />
 </g>
 <g
   id="lambriequin_x0020_2">
  <metadata
   id="CorelCorpID_2Corel-Layer" />
  <g
   id="_39056792">
   <path
   id="_39064008"
   class="fil4 str1"
   d="M191.773 209.169c5.3034,5.4131 13.7931,11.5504 25.9803,10.1467 7.4241,-0.8554 19.3101,-9.8463 25.7268,-22.1034 3.829,-7.3131 7.4315,-11.0705 12.5915,-14.9894 -2.5973,-0.9996 -6.2249,-1.1372 -8.311,0.2226 1.6314,-3.4871 3.6267,-7.8887 1.9214,-16.7913 -1.5755,2.1914 -3.6913,5.2726 -6.4952,6.5745 0.6877,-2.0767 2.4921,-13.5902 -5.8206,-25.0284 -8.9453,9.7148 -8.0875,21.0639 -7.5419,27.7727 -1.3237,-2.997 -4.7394,-5.7524 -7.3604,-6.5769 -0.9511,5.1123 -0.1574,7.2618 1.7452,12.5516 -2.1824,-2.8672 -6.8247,-2.7098 -9.4906,-2.3011 2.5657,2.3093 11.3348,17.2634 4.4682,28.6589 -4.9451,8.2067 -17.1944,9.9186 -22.2714,6.3465" />
   <path
   id="_39062960"
   class="fil4 str1"
   d="M219.186 207.305c-7.9125,-1.1141 -11.741,-7.7223 -13.6485,-15.7141 2.8433,1.8356 10.5517,-1.4642 10.0336,-1.6483 -15.6069,-5.5404 -21.6284,-34.493 -23.7988,-45.6815" />
   <path
   id="_39062016"
   class="fil4 str1"
   d="M236.959 161.338c0.7247,21.8231 -7.1882,49.2545 -19.5685,53.6294" />
   <path
   id="_39061296"
   class="fil4 str1"
   d="M246.741 174.565c-4.462,5.9763 -8.4236,14.9989 -9.6023,18.1175" />
   <path
   id="_39060352"
   class="fil4 str1"
   d="M226.993 177.645c0.8648,1.0546 2.1039,6.0721 2.3516,8.0502" />
   <path
   id="_39059408"
   class="fil4 str1"
   d="M222.101 183.937c3.089,3.7771 4.7122,9.4149 4.7122,12.0031" />
   <path
   id="_39058488"
   class="fil4 str1"
   d="M193.659 169.315c1.8278,5.7528 6.4784,15.1805 12.6798,18.1138" />
   <path
   id="_39056912"
   class="fil4 str1"
   d="M193.319 186.341c2.545,6.7881 5.9907,21.3429 16.7313,23.8235" />
  </g>
  <g
   id="_39046480">
   <path
   id="_39054560"
   class="fil4 str1"
   d="M65.2116 209.169c-5.3033,5.4131 -13.7931,11.5504 -25.9803,10.1467 -7.424,-0.8554 -19.3101,-9.8463 -25.7268,-22.1034 -3.8289,-7.3131 -7.4315,-11.0705 -12.5914,-14.9894 2.5972,-0.9996 6.2248,-1.1372 8.311,0.2226 -1.6314,-3.4871 -3.6268,-7.8887 -1.9215,-16.7913 1.5756,2.1914 3.6913,5.2726 6.4952,6.5745 -0.6877,-2.0767 -2.4921,-13.5902 5.8206,-25.0284 8.9454,9.7148 8.0876,21.0639 7.542,27.7727 1.3237,-2.997 4.7393,-5.7524 7.3604,-6.5769 0.951,5.1123 0.1573,7.2618 -1.7452,12.5516 2.1823,-2.8672 6.8246,-2.7098 9.4905,-2.3011 -2.5656,2.3093 -11.3347,17.2634 -4.4682,28.6589 4.9452,8.2067 17.1944,9.9186 22.2714,6.3465" />
   <path
   id="_39052888"
   class="fil4 str1"
   d="M37.7979 207.305c7.9126,-1.1141 11.7411,-7.7223 13.6485,-15.7141 -2.8433,1.8356 -10.5516,-1.4642 -10.0336,-1.6483 15.6069,-5.5404 21.6284,-34.493 23.7988,-45.6815" />
   <path
   id="_39051944"
   class="fil4 str1"
   d="M20.0251 161.338c-0.7247,21.8231 7.1883,49.2545 19.5686,53.6294" />
   <path
   id="_39050984"
   class="fil4 str1"
   d="M10.2433 174.565c4.462,5.9763 8.4237,14.9989 9.6023,18.1175" />
   <path
   id="_39050040"
   class="fil4 str1"
   d="M29.9914 177.645c-0.8648,1.0546 -2.1038,6.0721 -2.3516,8.0502" />
   <path
   id="_39049096"
   class="fil4 str1"
   d="M34.8835 183.937c-3.089,3.7771 -4.7122,9.4149 -4.7122,12.0031" />
   <path
   id="_39048176"
   class="fil4 str1"
   d="M63.3251 169.315c-1.8278,5.7528 -6.4783,15.1805 -12.6798,18.1138" />
   <path
   id="_39046600"
   class="fil4 str1"
   d="M63.6653 186.341c-2.5451,6.7881 -5.9907,21.3429 -16.7314,23.8235" />
  </g>
  <g
   id="_39041072">
   <path
   id="_39045272"
   class="fil4 str1"
   d="M128.492 59.4001c-26.8665,-1.7756 -25.6003,-11.4111 -44.3106,-9.3952 2.1112,2.0899 4.2902,3.338 5.3867,5.6427 -16.7551,-3.2011 -26.1528,5.3888 -33.8599,11.557 6.7983,5.1727 19.0874,5.9291 28.7764,4.0508 -0.8743,1.7936 -1.3545,4.5371 -0.4388,6.7437 3.8503,-4.409 8.7206,-6.761 13.4981,-8.1134 -0.7103,1.6055 -1.6802,4.5614 -0.9638,8.1216 13.1892,-6.2392 23.5561,-6.98 31.9119,-6.98" />
   <path
   id="_39044552"
   class="fil4 str1"
   d="M128.492 65.3168c-27.2054,-3.8285 -39.6876,-4.3974 -59.1214,-0.7247" />
   <path
   id="_39043696"
   class="fil4 str1"
   d="M94.1437 53.9936c2.5274,1.131 5.6793,3.8372 6.5494,5.1773" />
   <path
   id="_39042744"
   class="fil4 str1"
   d="M96.7184 65.0141c-3.6527,0.9161 -6.6263,3.4102 -8.0843,5.0047" />
   <path
   id="_39041192"
   class="fil4 str1"
   d="M113.94 66.7617c-5.3885,0.1779 -9.6035,1.8705 -12.1112,4.5191" />
  </g>
  <g
   id="_39027048">
   <path
   id="_39039016"
   class="fil4 str1"
   d="M128.492 59.4001c26.8664,-1.7756 25.6003,-11.4111 44.3106,-9.3952 -2.1113,2.0899 -4.2903,3.338 -5.3868,5.6427 16.7552,-3.2011 26.1529,5.3888 33.86,11.557 -6.7984,5.1727 -19.0875,5.9291 -28.7764,4.0508 0.8742,1.7936 1.3545,4.5371 0.4387,6.7437 -3.8502,-4.409 -8.7206,-6.761 -13.4981,-8.1134 0.7103,1.6055 1.6803,4.5614 0.9638,8.1216 -13.1892,-6.2392 -23.556,-6.98 -31.9118,-6.98" />
   <path
   id="_39038296"
   class="fil4 str1"
   d="M128.492 65.3168c27.2054,-3.8285 39.6875,-4.3974 59.1213,-0.7247" />
   <path
   id="_39037248"
   class="fil4 str1"
   d="M162.841 53.9936c-2.5274,1.131 -5.6793,3.8372 -6.5494,5.1773" />
   <path
   id="_39036544"
   class="fil4 str1"
   d="M160.266 65.0141c3.6526,0.9161 6.6262,3.4102 8.0842,5.0047" />
   <path
   id="_39027168"
   class="fil4 str1"
   d="M143.044 66.7617c5.3884,0.1779 9.6035,1.8705 12.1112,4.5191" />
  </g>
  <g
   id="_39031664">
   <path
   id="_39032936"
   class="fil5 str1"
   d="M151.708 60.0131c-4.753,1.398 -7.0565,5.9961 -8.3817,8.5028 -1.4709,2.7822 -4.0123,9.5194 -8.8855,13.9611 3.2607,0.9218 8.8914,1.316 11.5242,0.3 3.4546,-1.3333 7.2936,-4.9919 9.579,-7.982 4.5321,-5.9295 6.3864,-17.7939 -3.836,-14.7819z" />
   <path
   id="_39031768"
   class="fil4 str1"
   d="M153.435 77.2583c1.0567,-1.3924 2.5307,-3.7579 3.265,-5.3775 1.5221,-3.3572 2.1229,-7.2791 1.0105,-9.6206 -0.9321,-1.9618 -3.875,-2.4715 -7.9591,-0.1606 -5.7516,3.2546 -7.983,12.2013 -12.7698,17.6313" />
  </g>
 </g>
 <g
   id="fondo">
  <metadata
   id="CorelCorpID_3Corel-Layer" />
  <polygon
   class="fil3"
   points="191.773,226.13 191.773,80.425 65.212,80.425 65.212,226.13 65.2227,226.375 65.2346,226.64 65.2453,226.822 65.2638,227.074 65.2967,227.33 65.3402,227.62 65.3649,227.781 65.408,228.006 65.4729,228.265 65.5395,228.51 65.5945,228.716 65.6549,228.925 65.7445,229.17 65.8488,229.45 65.9897,229.804 66.0949,230.011 66.1972,230.216 66.3073,230.43 66.4244,230.643 66.5189,230.802 66.6216,230.965 66.7399,231.148 66.942,231.443 67.0994,231.654 67.2432,231.828 67.3833,232.006 67.5381,232.179 67.7012,232.356 67.873,232.529 68.0525,232.704 68.2222,232.865 68.4202,233.033 68.5923,233.174 68.7661,233.311 68.9366,233.446 69.1605,233.594 69.3647,233.728 69.5397,233.841 69.7422,233.964 69.9653,234.084 70.1551,234.186 70.3589,234.284 70.5894,234.395 70.8474,234.497 71.0704,234.583 71.2615,234.657 71.4636,234.729 71.6739,234.791 71.9266,234.859 72.1435,234.914 72.3662,234.968 72.6291,235.013 72.8222,235.047 73.0354,235.078 73.3016,235.12 73.5231,235.134 73.7359,235.145 73.9951,235.162 74.2519,235.167 119.449,235.167 119.71,235.18 119.951,235.19 120.211,235.208 120.464,235.224 120.699,235.261 120.934,235.301 121.148,235.334 121.318,235.367 121.467,235.396 121.645,235.445 121.785,235.485 121.912,235.519 122.031,235.555 122.171,235.592 122.3,235.63 122.439,235.676 122.667,235.764 122.873,235.846 123.111,235.94 123.259,236.007 123.393,236.074 123.687,236.229 123.857,236.326 124.018,236.415 124.159,236.491 124.257,236.553 124.459,236.687 124.647,236.818 124.838,236.956 125.079,237.138 125.291,237.307 125.467,237.468 125.651,237.633 125.84,237.813 126.02,238.009 126.204,238.211 126.367,238.393 126.517,238.568 126.671,238.785 126.826,238.987 126.948,239.167 127.106,239.392 127.233,239.619 127.343,239.814 127.455,240.017 127.595,240.28 127.704,240.517 127.81,240.783 127.9,240.999 127.984,241.22 128.06,241.458 128.129,241.712 128.199,241.963 128.264,242.184 128.314,242.452 128.351,242.662 128.387,242.885 128.426,243.107 128.431,243.204 128.452,243.41 128.46,243.591 128.472,243.782 128.478,243.965 128.493,244.207 128.5,243.965 128.511,243.782 128.521,243.591 128.528,243.41 128.547,243.204 128.558,243.107 128.593,242.885 128.634,242.662 128.665,242.452 128.719,242.184 128.779,241.963 128.85,241.712 128.918,241.458 129.001,241.22 129.079,240.999 129.171,240.783 129.282,240.517 129.386,240.28 129.525,240.017 129.639,239.814 129.749,239.619 129.876,239.392 130.032,239.167 130.157,238.987 130.308,238.785 130.468,238.568 130.612,238.393 130.774,238.211 130.958,238.009 131.142,237.813 131.33,237.633 131.515,237.468 131.694,237.307 131.905,237.138 132.144,236.956 132.332,236.818 132.519,236.687 132.724,236.553 132.819,236.491 132.961,236.415 133.122,236.326 133.298,236.229 133.586,236.074 133.72,236.007 133.872,235.94 134.114,235.846 134.319,235.764 134.543,235.676 134.682,235.63 134.81,235.592 134.95,235.555 135.068,235.519 135.2,235.485 135.341,235.445 135.513,235.396 135.666,235.367 135.832,235.334 136.044,235.301 136.282,235.261 136.519,235.224 136.772,235.208 137.034,235.19 137.27,235.18 137.529,235.167 182.728,235.167 182.989,235.162 183.249,235.145 183.461,235.134 183.679,235.12 183.949,235.078 184.16,235.047 184.352,235.013 184.617,234.968 184.834,234.914 185.057,234.859 185.309,234.791 185.519,234.729 185.718,234.657 185.913,234.583 186.134,234.497 186.39,234.395 186.62,234.284 186.828,234.186 187.014,234.084 187.243,233.964 187.441,233.841 187.618,233.728 187.824,233.594 188.044,233.446 188.219,233.311 188.387,233.174 188.564,233.033 188.758,232.865 188.932,232.704 189.106,232.529 189.283,232.356 189.447,232.179 189.595,232.006 189.738,231.828 189.883,231.654 190.039,231.443 190.241,231.148 190.359,230.965 190.466,230.802 190.561,230.643 190.679,230.43 190.783,230.216 190.888,230.011 190.991,229.804 191.132,229.45 191.239,229.17 191.328,228.925 191.386,228.716 191.445,228.51 191.514,228.265 191.571,228.006 191.613,227.781 191.639,227.62 191.681,227.33 191.722,227.074 191.736,226.822 191.748,226.64 191.758,226.375 "
   id="polygon84" />
  <path
   class="fil2 str1"
   d="M184.769 87.4292l0 136.52c0,3.0955 -0.4901,4.2138 -4.3141,4.2138l-44.2354 0c-2.7045,0 -6.3953,0.8693 -7.7268,3.1552 -1.3315,-2.2859 -5.0224,-3.1552 -7.7269,-3.1552l-44.2354 0c-3.824,0 -4.3141,-1.1183 -4.3141,-4.2138l0 -136.52 56.2764 0 56.2763 0zm7.0042 138.701l0 -145.705 -126.561 0 0 145.705 0.0107 0.2453 0.0119 0.265 0.0107 0.1816 0.0185 0.2518 0.0329 0.2568 0.0435 0.29 0.0247 0.1602 0.0431 0.2256 0.0649 0.2588 0.0666 0.2453 0.055 0.2062 0.0604 0.2083 0.0896 0.2449 0.1043 0.2805 0.1409 0.3534 0.1052 0.2078 0.1023 0.205 0.1101 0.2133 0.1171 0.2136 0.0945 0.159 0.1027 0.1627 0.1183 0.1832 0.2021 0.295 0.1574 0.2107 0.1438 0.1738 0.1401 0.1779 0.1548 0.173 0.1631 0.177 0.1718 0.1738 0.1795 0.1746 0.1697 0.1615 0.198 0.1672 0.1721 0.1413 0.1738 0.1372 0.1705 0.1352 0.2239 0.1475 0.2042 0.1339 0.175 0.113 0.2025 0.1228 0.2231 0.1204 0.1898 0.1019 0.2038 0.0977 0.2305 0.1114 0.258 0.1019 0.223 0.0862 0.1911 0.074 0.2021 0.0719 0.2103 0.062 0.2527 0.0682 0.2169 0.0546 0.2227 0.0539 0.2629 0.0451 0.1931 0.0346 0.2132 0.0304 0.2662 0.0423 0.2215 0.0139 0.2128 0.0107 0.2592 0.0173 0.2568 0.0049 45.1967 0 0.2613 0.0136 0.2412 0.0098 0.26 0.0181 0.2527 0.016 0.2354 0.0362 0.235 0.0407 0.2136 0.0324 0.1701 0.0333 0.1491 0.0292 0.1779 0.0484 0.1401 0.0403 0.127 0.0337 0.1191 0.0365 0.1397 0.037 0.129 0.0382 0.1392 0.046 0.2276 0.0875 0.2067 0.0826 0.2379 0.0933 0.1479 0.0678 0.1335 0.0661 0.2945 0.1553 0.1701 0.0974 0.1607 0.0887 0.1409 0.076 0.0986 0.0625 0.2017 0.1335 0.1881 0.1306 0.1903 0.1385 0.2415 0.1815 0.212 0.1697 0.1758 0.1611 0.1837 0.1647 0.1898 0.1799 0.1795 0.196 0.1841 0.2021 0.1627 0.1824 0.1503 0.1746 0.1545 0.2166 0.1549 0.2025 0.1216 0.1795 0.1577 0.2252 0.1274 0.2276 0.1101 0.1947 0.1117 0.2029 0.1405 0.2626 0.1085 0.2374 0.1064 0.2662 0.0896 0.2157 0.0842 0.2206 0.076 0.2387 0.069 0.2539 0.0703 0.251 0.0645 0.2206 0.0501 0.2687 0.0374 0.2091 0.0353 0.2239 0.039 0.2211 0.0058 0.0977 0.0209 0.2054 0.0074 0.1812 0.0123 0.1915 0.0062 0.1828 0.0152 0.242 0.0066 -0.242 0.0111 -0.1828 0.0102 -0.1915 0.0066 -0.1812 0.0189 -0.2054 0.0111 -0.0977 0.0349 -0.2211 0.0407 -0.2239 0.0316 -0.2091 0.0543 -0.2687 0.0595 -0.2206 0.0711 -0.251 0.0682 -0.2539 0.0826 -0.2387 0.078 -0.2206 0.0925 -0.2157 0.1105 -0.2662 0.1039 -0.2374 0.1393 -0.2626 0.1142 -0.2029 0.1101 -0.1947 0.1269 -0.2276 0.1553 -0.2252 0.1253 -0.1795 0.1512 -0.2025 0.1603 -0.2166 0.1437 -0.1746 0.1619 -0.1824 0.1841 -0.2021 0.1844 -0.196 0.1878 -0.1799 0.1844 -0.1647 0.1796 -0.1611 0.2111 -0.1697 0.2383 -0.1815 0.1886 -0.1385 0.1869 -0.1306 0.2046 -0.1335 0.0957 -0.0625 0.1418 -0.076 0.161 -0.0887 0.1754 -0.0974 0.288 -0.1553 0.1348 -0.0661 0.1511 -0.0678 0.242 -0.0933 0.2054 -0.0826 0.2239 -0.0875 0.1389 -0.046 0.1286 -0.0382 0.1401 -0.037 0.1175 -0.0365 0.1318 -0.0337 0.1414 -0.0403 0.1721 -0.0484 0.1528 -0.0292 0.1664 -0.0333 0.2112 -0.0324 0.2379 -0.0407 0.2374 -0.0362 0.2535 -0.016 0.2613 -0.0181 0.2362 -0.0098 0.2592 -0.0136 45.1988 0 0.2613 -0.0049 0.2601 -0.0173 0.2116 -0.0107 0.2181 -0.0139 0.2695 -0.0423 0.2112 -0.0304 0.1922 -0.0346 0.265 -0.0451 0.2169 -0.0539 0.2235 -0.0546 0.2519 -0.0682 0.2099 -0.062 0.1984 -0.0719 0.1952 -0.074 0.221 -0.0862 0.2559 -0.1019 0.2305 -0.1114 0.2075 -0.0977 0.1865 -0.1019 0.2284 -0.1204 0.198 -0.1228 0.1779 -0.113 0.2059 -0.1339 0.2198 -0.1475 0.175 -0.1352 0.1676 -0.1372 0.177 -0.1413 0.1944 -0.1672 0.1737 -0.1615 0.1738 -0.1746 0.1771 -0.1738 0.1643 -0.177 0.1475 -0.173 0.143 -0.1779 0.145 -0.1738 0.1561 -0.2107 0.2021 -0.295 0.1184 -0.1832 0.1068 -0.1627 0.0949 -0.159 0.1183 -0.2136 0.1043 -0.2133 0.1048 -0.205 0.1023 -0.2078 0.1413 -0.3534 0.1073 -0.2805 0.0887 -0.2449 0.0583 -0.2083 0.0588 -0.2062 0.069 -0.2453 0.0575 -0.2588 0.0415 -0.2256 0.0263 -0.1602 0.0419 -0.29 0.0411 -0.2568 0.014 -0.2518 0.0115 -0.1816 0.0098 -0.265 0.0152 -0.2453z"
   id="path86" />
 </g>
 <g
   id="elementos">
  <metadata
   id="CorelCorpID_4Corel-Layer" />
  <g
   id="_39008616">
   <path
   id="_39023440"
   class="fil2 str2"
   d="M171.031 108.948c-0.4071,0.0108 -0.7953,0.8556 -0.9622,1.257l1.6985 -0.0214c-0.1097,-0.2923 -0.3472,-1.2459 -0.7363,-1.2356z" />
   <polygon
   id="_39022408"
   class="fil2 str2"
   points="170.069,110.205 166.452,110.251 166.486,111.269 172.753,111.19 172.719,110.172 171.767,110.184 " />
   <path
   id="_39021056"
   class="fil2 str2"
   d="M112.43 114.555c-0.5557,0.4479 -0.6752,1.5065 0.0675,1.9721 0.222,0.1407 0.5689,0.0087 0.2895,-0.1737 -0.2551,-0.1457 -0.39,-0.4394 -0.405,-0.7335 -0.0281,-0.5457 0.3079,-0.9485 0.6942,-1.1004 -0.2236,0.0122 -0.4394,0.024 -0.6462,0.0355z" />
   <path
   id="_39019424"
   class="fil2 str2"
   d="M112.915 116.92c-1.0261,0.0875 -2.0079,-0.3848 -2.032,-1.1834 -0.0161,-0.5354 0.1829,-0.9355 0.657,-1.1302 -0.4362,0.0258 -0.8098,0.0494 -1.1069,0.0703 -0.0191,0.063 -0.2627,0.9551 0.0088,1.6294 0.3335,0.8278 1.5577,1.2392 2.6532,1.1077 0.7744,-0.0931 1.8711,-0.4396 2.131,-1.2779 0.1603,-0.5173 0.0626,-1.2525 -0.1606,-1.7207 -0.344,0.0178 -0.6786,0.0352 -1.0016,0.0522 0.3543,0.1212 0.6128,0.4669 0.6703,0.9322 0.1339,1.0827 -0.897,1.4418 -1.8192,1.5204z" />
   <path
   id="_39017600"
   class="fil2 str2"
   d="M111.657 111.242c-1.8266,0.4378 -4.1398,1.5607 -6.2169,2.1791 -1.682,0.6113 -3.5278,0.1815 -5.3121,0.3022l-12.1067 0.8212c-0.7725,0.0456 -1.1169,0.1933 -1.088,0.6732l0.2377 6.2478c0.03,1.1476 0.4244,2.0983 1.1598,1.8662 4.0275,-1.1501 9.0687,-3.3332 13.5245,-5.1125 2.6624,-1.0633 7.0222,-3.4481 8.5776,-3.5425 2.3704,-0.1671 9.6189,-0.5016 14.609,-0.7796 13.7371,-0.521 24.4328,-0.8514 37.772,-1.2787l0.0098 0.4219 3.7156 -0.1361 -0.0947 -2.8798 -3.6899 0.0422 -1.5672 -0.3587 -16.7534 -0.0279 -20.8042 -0.1196 -0.059 0.4135 -6.4227 0 -0.4954 -0.5192 -5.0489 0.0633 -0.0008 0.5486 -1.3148 0 0.0106 1.0442 1.3463 -0.3374 0.0118 0.4686z" />
   <path
   id="_39016696"
   class="fil4 str2"
   d="M162.764 110.45l-47.5555 0.2636c-1.5083,-0.0005 -2.4514,0.2578 -3.551,0.5279" />
   <line
   id="_39015752"
   class="fil4 str2"
   x1="162.755"
   y1="110.066"
   x2="162.827"
   y2="113.147" />
   <polygon
   id="_39010280"
   class="fil2 str2"
   points="144.433,109.448 144.433,113.689 145.191,113.689 145.191,109.448 " />
   <path
   id="_39008720"
   class="fil4 str2"
   d="M92.3766 121.986c0.4253,0.8639 1.7195,0.214 1.3569,-0.5098" />
  </g>
  <g
   id="_38930296">
   <path
   id="_39007512"
   class="fil2 str3"
   d="M124.426 137.281c0,0 0.3895,0.8638 0.4019,1.1383 0.0123,0.2745 -0.0785,0.5705 -0.1207,0.6801 -0.0425,0.1096 -0.1819,0.2708 -0.1819,0.2708 0,0 -0.5475,-0.9003 -0.4507,-1.3802 0.0965,-0.4798 0.3514,-0.709 0.3514,-0.709z" />
   <path
   id="_39006408"
   class="fil2 str3"
   d="M124.088 137.85c0,0 0.3895,1.011 0.4019,1.3322 0.0123,0.3213 -0.0785,0.6678 -0.1208,0.796 -0.0424,0.1282 -0.1818,0.317 -0.1818,0.317 0,0 -0.5475,-1.0537 -0.4507,-1.6153 0.0965,-0.5616 0.3514,-0.8299 0.3514,-0.8299z" />
   <path
   id="_39005304"
   class="fil2 str3"
   d="M123.704 138.872c0,0 0.4782,1.0875 0.5193,1.4438 0.0413,0.3562 -0.0179,0.7504 -0.0486,0.8973 -0.0306,0.1466 -0.1524,0.37 -0.1524,0.37 0,0 -0.6389,-1.12 -0.5932,-1.7542 0.0457,-0.6341 0.2749,-0.9569 0.2749,-0.9569z" />
   <path
   id="_39004200"
   class="fil2 str3"
   d="M123.42 140.017c0,0 0.5494,1.0902 0.614,1.4561 0.0648,0.3659 0.0318,0.7788 0.011,0.933 -0.0209,0.1545 -0.1277,0.3951 -0.1277,0.3951 0,0 -0.712,-1.1116 -0.7083,-1.772 0.0036,-0.6603 0.211,-1.0122 0.211,-1.0122z" />
   <path
   id="_39003096"
   class="fil2 str3"
   d="M123.206 141.287c0,0 0.6187,1.0523 0.7068,1.4133 0.0883,0.361 0.0821,0.7751 0.0713,0.9304 -0.0108,0.1554 -0.1019,0.4024 -0.1019,0.4024 0,0 -0.7823,-1.0632 -0.8214,-1.7224 -0.039,-0.6592 0.1452,-1.0237 0.1452,-1.0237z" />
   <path
   id="_39001960"
   class="fil2 str3"
   d="M125.412 167.955c1.0846,0.3073 1.2705,-1.2267 0.3907,-1.078 -0.0119,0.5881 0.1406,0.5979 -0.3907,1.078z" />
   <path
   id="_39000856"
   class="fil2 str3"
   d="M125.085 167.939c1.0921,0.231 1.2589,-1.3245 0.3791,-1.1758 -0.0119,0.5881 0.1521,0.6957 -0.3791,1.1758z" />
   <path
   id="_38999752"
   class="fil2 str3"
   d="M124.664 167.955c1.202,0.1293 1.2323,-1.4624 0.3525,-1.3137 -0.0119,0.5881 0.1788,0.8336 -0.3525,1.3137z" />
   <path
   id="_38998648"
   class="fil2 str3"
   d="M124.275 167.906c1.1212,0.2456 1.316,-1.5981 0.1732,-1.356 -0.011,0.5462 0.094,0.8317 -0.1732,1.356z" />
   <path
   id="_38997408"
   class="fil2 str3"
   d="M123.859 167.973c1.2349,0.0776 1.2013,-1.7361 0.0655,-1.3992 -0.0114,0.561 0.1412,0.8468 -0.0655,1.3992z" />
   <path
   id="_38996304"
   class="fil2 str3"
   d="M123.564 168.04c0.8154,0.1268 1.0249,-1.1121 0.3606,-1.4663 -0.1531,-0.0816 -0.5714,0.0244 -0.6038,0.1407 0,0 -0.1323,0.5476 -0.0608,0.6901 0.0714,0.1425 0.304,0.6355 0.304,0.6355z" />
   <path
   id="_38995200"
   class="fil2 str3"
   d="M123.207 168.143c-0.2161,-0.3318 -0.7218,-1.0622 -0.1343,-1.4594 0.526,-0.2651 0.8163,0.5528 0.6834,1.1136 -0.0962,0.4556 -0.5491,0.3458 -0.5491,0.3458z" />
   <path
   id="_38994096"
   class="fil2 str3"
   d="M128.886 156.274c0,0 1.173,0.4937 1.4784,0.741 0.3664,0.2966 0.6945,0.6866 0.8489,1.1365 0,0 -1.3081,-0.4001 -1.7705,-0.9281 -0.4621,-0.528 -0.5568,-0.9494 -0.5568,-0.9494z" />
   <path
   id="_38992992"
   class="fil2 str3"
   d="M129.502 157.296c0,0 1.2353,0.5092 1.5408,0.7566 0.3665,0.2967 0.6968,0.7667 0.7783,1.2313 0,0 -1.3001,-0.5105 -1.7623,-1.0385 -0.4622,-0.5279 -0.5568,-0.9494 -0.5568,-0.9494z" />
   <path
   id="_38991888"
   class="fil2 str3"
   d="M130.289 158.439c0,0 1.1507,0.5034 1.4454,0.7636 0.3532,0.312 0.6138,0.7629 0.7485,1.219 0,0 -1.239,-0.463 -1.6782,-1.0102 -0.4391,-0.5474 -0.5157,-0.9724 -0.5157,-0.9724z" />
   <path
   id="_38990784"
   class="fil2 str3"
   d="M130.901 159.517c0,0 1.222,0.5577 1.5073,0.8266 0.3422,0.3224 0.6088,0.7614 0.7272,1.2209 0,0 -1.2732,-0.4945 -1.6929,-1.0548 -0.4197,-0.5604 -0.5416,-0.9927 -0.5416,-0.9927z" />
   <path
   id="_38989648"
   class="fil2 str3"
   d="M123.139 145.363c0,0 0.9157,0.8836 1.1113,1.2244 0.1956,0.3408 0.3173,0.7641 0.355,0.9258 0.0376,0.1614 0.0268,0.4406 0.0268,0.4406 0,0 -1.0757,-0.8453 -1.3162,-1.5045 -0.2406,-0.6594 -0.1769,-1.0863 -0.1769,-1.0863z" />
   <path
   id="_38988544"
   class="fil2 str3"
   d="M123.359 146.627c0,0 0.9655,0.829 1.1805,1.1579 0.2151,0.3288 0.3611,0.7444 0.408,0.9036 0.0469,0.159 0.0523,0.4383 0.0523,0.4383 0,0 -1.1229,-0.7815 -1.4013,-1.4255 -0.2785,-0.6442 -0.2395,-1.0743 -0.2395,-1.0743z" />
   <path
   id="_38987440"
   class="fil2 str3"
   d="M123.666 147.807c0,0 0.9655,0.829 1.1805,1.1578 0.2151,0.3289 0.3611,0.7445 0.4082,0.9036 0.0468,0.159 0.0523,0.4383 0.0523,0.4383 0,0 -1.1229,-0.7814 -1.4013,-1.4255 -0.2785,-0.6442 -0.2397,-1.0742 -0.2397,-1.0742z" />
   <path
   id="_38986200"
   class="fil2 str3"
   d="M123.938 149.005c0,0 1.0256,0.7493 1.2647,1.06 0.2394,0.3105 0.4161,0.713 0.4749,0.8677 0.0586,0.1546 0.085,0.4324 0.085,0.4324 0,0 -1.1791,-0.6893 -1.5051,-1.3089 -0.326,-0.6197 -0.3195,-1.0512 -0.3195,-1.0512z" />
   <path
   id="_38985096"
   class="fil2 str3"
   d="M124.297 150.135c0,0 1.0957,0.6426 1.3648,0.9276 0.2693,0.2848 0.4857,0.6675 0.5597,0.8155 0.0738,0.148 0.128,0.4218 0.128,0.4218 0,0 -1.2424,-0.5674 -1.629,-1.1512 -0.3868,-0.5837 -0.4235,-1.0137 -0.4235,-1.0137z" />
   <path
   id="_38983992"
   class="fil2 str3"
   d="M124.817 151.224c0,0 1.1487,0.5421 1.4422,0.8019 0.2937,0.2595 0.5434,0.6213 0.6304,0.7622 0.0868,0.1408 0.165,0.4086 0.165,0.4086 0,0 -1.2881,-0.4541 -1.7253,-1.0009 -0.4371,-0.5468 -0.5123,-0.9718 -0.5123,-0.9718z" />
   <path
   id="_38982888"
   class="fil2 str3"
   d="M125.384 152.264c0,0 1.1569,0.5244 1.4544,0.7796 0.2975,0.2551 0.5528,0.6131 0.6419,0.7526 0.0889,0.1394 0.1714,0.4059 0.1714,0.4059 0,0 -1.2949,-0.4342 -1.7405,-0.9743 -0.4455,-0.5401 -0.5272,-0.9638 -0.5272,-0.9638z" />
   <path
   id="_38981784"
   class="fil2 str3"
   d="M126.046 153.363c0,0 1.1799,0.4702 1.4889,0.7113 0.309,0.2411 0.5806,0.5869 0.6761,0.7221 0.0953,0.1352 0.1901,0.3975 0.1901,0.3975 0,0 -1.3137,-0.3737 -1.7839,-0.8926 -0.4701,-0.5188 -0.5712,-0.9383 -0.5712,-0.9383z" />
   <path
   id="_38980680"
   class="fil2 str3"
   d="M131.661 174.572c-1.0857,-0.3032 -1.2658,1.2315 -0.3866,1.0795 0.0097,-0.5881 -0.1429,-0.5974 0.3866,-1.0795z" />
   <path
   id="_38979576"
   class="fil2 str3"
   d="M132.028 174.701c-1.0857,-0.3031 -1.2658,1.2316 -0.3866,1.0795 0.0097,-0.5881 -0.1428,-0.5974 0.3866,-1.0795z" />
   <path
   id="_38978472"
   class="fil2 str3"
   d="M132.355 174.716c-1.093,-0.2268 -1.254,1.3292 -0.3748,1.1772 0.0097,-0.5881 -0.1547,-0.6951 0.3748,-1.1772z" />
   <path
   id="_38977336"
   class="fil2 str3"
   d="M132.778 174.747c-1.2024,-0.1247 -1.228,1.4179 -0.3488,1.2658 0.0097,-0.5881 -0.1807,-0.7837 0.3488,-1.2658z" />
   <path
   id="_38976232"
   class="fil2 str3"
   d="M133.165 174.745c-1.1221,-0.2414 -1.3099,1.603 -0.1681,1.3566 0.009,-0.5462 -0.0971,-0.8313 0.1681,-1.3566z" />
   <path
   id="_38974992"
   class="fil2 str3"
   d="M133.581 174.677c-1.2351,-0.073 -1.1947,1.7406 -0.0601,1.3994 0.0092,-0.561 -0.1445,-0.8462 0.0601,-1.3994z" />
   <path
   id="_38973888"
   class="fil2 str3"
   d="M133.876 174.609c-0.816,-0.1237 -1.0208,1.116 -0.3552,1.4676 0.1534,0.0811 0.5714,-0.0264 0.6033,-0.1429 0,0 0.1303,-0.5481 0.0582,-0.6903 -0.0719,-0.1423 -0.3063,-0.6344 -0.3063,-0.6344z" />
   <path
   id="_38972784"
   class="fil2 str3"
   d="M134.232 174.505c0.2173,0.3309 0.7257,1.0595 0.1397,1.4589 -0.525,0.267 -0.8184,-0.5497 -0.6876,-1.111 0.0945,-0.456 0.5479,-0.3479 0.5479,-0.3479z" />
   <path
   id="_38971992"
   class="fil2 str3"
   d="M128.493 133.115c1.7134,0 3.103,1.3895 3.103,3.103 0,1.7134 -1.3896,3.1029 -3.103,3.1029 -1.7133,0 -3.1029,-1.3895 -3.1029,-3.1029 0,-1.7135 1.3896,-3.103 3.1029,-3.103zm4.1818 3.103c0,-2.3092 -1.8726,-4.1818 -4.1817,-4.1818 -2.3091,0 -4.1818,1.8726 -4.1818,4.1818 0,2.3091 1.8727,4.1817 4.1818,4.1817 2.3091,0 4.1817,-1.8726 4.1817,-4.1817z" />
   <path
   id="_38968928"
   class="fil2 str3"
   d="M130.158 164.007l0 -25.3731c0,-0.9367 -0.8192,-1.254 -1.6647,-1.2542 -0.8455,0.0002 -1.6647,0.3175 -1.6647,1.2542l0 25.3731c0,5.0523 -7.1532,6.0622 -11.393,1.2778 1.4026,0.51 2.8769,0.4682 4.3959,0.4682 -4.8296,-1.5995 -7.5438,-6.2962 -9.0258,-9.4866 -1.4238,7.7049 1.8083,12.0765 2.7447,15.7553 0.3897,-1.4875 0.4789,-3.0538 0.1358,-4.3767 3.148,3.7031 3.9799,4.7458 8.2522,6.0935 2.541,0.8015 4.8902,1.7268 6.5549,3.5253 1.6647,-1.7985 4.0139,-2.7238 6.5548,-3.5253 4.2723,-1.3477 5.1043,-2.3904 8.2522,-6.0935 -0.343,1.3229 -0.2538,2.8892 0.1359,4.3767 0.9364,-3.6788 4.1684,-8.0504 2.7446,-15.7553 -1.4819,3.1904 -4.1961,7.8871 -9.0257,9.4866 1.5189,0 2.9933,0.0418 4.3959,-0.4682 -4.2399,4.7844 -11.393,3.7745 -11.393,-1.2778z" />
   <path
   id="_38967872"
   class="fil4 str3"
   d="M146.179 156.284c-1.5107,14.0579 -11.693,15.2468 -17.6856,15.3532" />
   <path
   id="_38967080"
   class="fil4 str3"
   d="M128.962 166.949c0.5999,1.6964 2.1556,3.2842 5.0722,3.3035" />
   <path
   id="_38966120"
   class="fil4 str3"
   d="M128.025 166.949c-0.6,1.6964 -2.1556,3.2842 -5.0722,3.3035" />
   <path
   id="_38965032"
   class="fil4 str3"
   d="M110.808 156.284c1.5107,14.0579 11.693,15.2468 17.6856,15.3532" />
   <path
   id="_38963232"
   class="fil2 str3"
   d="M134.554 145.958l7.9855 0c0.7396,0.001 0.7762,-0.9575 0.7762,-1.5605 0,-0.603 -0.0366,-1.5615 -0.7762,-1.5605l-7.9855 0c-0.973,-0.0156 -2.2256,-0.9702 -2.9913,-1.1445 -0.9586,-0.2182 -2.0334,-0.2081 -3.0693,-0.2081 -1.036,0 -2.1107,-0.0101 -3.0694,0.2081 -0.7657,0.1743 -2.0182,1.1289 -2.9913,1.1445l-7.9854 0c-0.7397,-0.001 -0.7763,0.9575 -0.7763,1.5605 0,0.603 0.0366,1.5615 0.7763,1.5605l7.9854 0c0.9731,0.0156 2.2256,0.9702 2.9913,1.1445 0.9587,0.2182 2.0334,0.2081 3.0694,0.2081 1.0359,0 2.1107,0.0101 3.0693,-0.2081 0.7657,-0.1743 2.0183,-1.1289 2.9913,-1.1445z" />
   <path
   id="_38962024"
   class="fil2 str3"
   d="M141.655 142.759c0,-0.4292 -0.3511,-0.7803 -0.7803,-0.7803 -0.4292,0 -0.7804,0.3511 -0.7804,0.7803l0 3.2774c0,0.4292 0.3512,0.7804 0.7804,0.7804 0.4292,0 0.7803,-0.3512 0.7803,-0.7804l0 -3.2774z" />
   <path
   id="_38960952"
   class="fil2 str3"
   d="M136.349 142.759c0,-0.4292 -0.3511,-0.7803 -0.7803,-0.7803 -0.4292,0 -0.7804,0.3511 -0.7804,0.7803l0 3.2774c0,0.4292 0.3512,0.7804 0.7804,0.7804 0.4292,0 0.7803,-0.3512 0.7803,-0.7804l0 -3.2774z" />
   <path
   id="_38960160"
   class="fil2 str3"
   d="M129.981 144.397c0,-0.8214 -0.6661,-1.4875 -1.4875,-1.4875 -0.8214,0 -1.4875,0.6661 -1.4875,1.4875 0,0.8214 0.6661,1.4875 1.4875,1.4875 0.8214,0 1.4875,-0.6661 1.4875,-1.4875z" />
   <path
   id="_38787520"
   class="fil2 str3"
   d="M115.332 142.759c0,-0.4292 0.3512,-0.7803 0.7804,-0.7803 0.4292,0 0.7803,0.3511 0.7803,0.7803l0 3.2774c0,0.4292 -0.3511,0.7804 -0.7803,0.7804 -0.4292,0 -0.7804,-0.3512 -0.7804,-0.7804l0 -3.2774z" />
   <path
   id="_38786184"
   class="fil2 str3"
   d="M120.638 142.759c0,-0.4292 0.3511,-0.7803 0.7803,-0.7803 0.4292,0 0.7803,0.3511 0.7803,0.7803l0 3.2774c0,0.4292 -0.3511,0.7804 -0.7803,0.7804 -0.4292,0 -0.7803,-0.3512 -0.7803,-0.7804l0 -3.2774z" />
   <path
   id="_38785136"
   class="fil2 str3"
   d="M127.006 144.397c0,-0.8214 0.6661,-1.4875 1.4875,-1.4875 0.8214,0 1.4875,0.6661 1.4875,1.4875 0,0.8214 -0.6661,1.4875 -1.4875,1.4875 -0.8214,0 -1.4875,-0.6661 -1.4875,-1.4875z" />
   <path
   id="_38955880"
   class="fil2 str3"
   d="M131.616 160.672c0,0 1.1315,0.5568 1.4117,0.831 0.3362,0.3287 0.6143,0.7897 0.7242,1.2513 0,0 -1.2638,-0.5181 -1.673,-1.0861 -0.4092,-0.5681 -0.4629,-0.9962 -0.4629,-0.9962z" />
   <path
   id="_38954776"
   class="fil2 str3"
   d="M132.182 161.759c0,0 1.1602,0.596 1.4338,0.8767 0.3284,0.3365 0.5534,0.7913 0.6524,1.2553 0,0 -1.2512,-0.5477 -1.647,-1.1252 -0.3957,-0.5776 -0.4392,-1.0068 -0.4392,-1.0068z" />
   <path
   id="_38953672"
   class="fil2 str3"
   d="M132.713 162.852c0,0 1.1775,0.6488 1.4409,0.9389 0.3163,0.348 0.4861,0.7981 0.5689,1.2655 0,0 -1.2309,-0.5916 -1.6063,-1.1826 -0.375,-0.5911 -0.4035,-1.0218 -0.4035,-1.0218z" />
   <path
   id="_38952536"
   class="fil2 str3"
   d="M133.207 163.943c0,0 1.0828,0.6636 1.3463,0.9538 0.3676,0.3409 0.5914,0.8221 0.6015,1.2894 0,0 -1.1691,-0.6305 -1.5443,-1.2216 -0.3749,-0.591 -0.4035,-1.0216 -0.4035,-1.0216z" />
   <path
   id="_38951296"
   class="fil2 str3"
   d="M133.667 165.01c0,0 1.0584,0.6592 1.2953,0.9449 0.365,0.3643 0.4061,0.7531 0.4648,1.1988 0,0 -1.0913,-0.5847 -1.4215,-1.1599 -0.3299,-0.5752 -0.3386,-0.9838 -0.3386,-0.9838z" />
   <path
   id="_38950192"
   class="fil2 str3"
   d="M134.016 166.042c0,0 1.1354,0.7868 1.3635,1.1067 0.2446,0.3428 0.3516,0.898 0.3773,1.323 0,0 -1.1536,-0.7343 -1.458,-1.3665 -0.3043,-0.6319 -0.2828,-1.0632 -0.2828,-1.0632z" />
   <path
   id="_38949088"
   class="fil2 str3"
   d="M134.394 167.251c0,0 1.0135,0.7715 1.2482,1.0875 0.2811,0.3789 0.3238,0.846 0.2964,1.3278 0,0 -0.9239,-0.7298 -1.2407,-1.357 -0.3165,-0.6268 -0.3039,-1.0583 -0.3039,-1.0583z" />
   <path
   id="_38947984"
   class="fil2 str3"
   d="M134.761 168.422c0,0 0.9848,0.8109 1.1497,1.1688 0.1952,0.4963 0.2001,0.9219 0.0922,1.3939 0,0 -0.9335,-0.8629 -1.0952,-1.4594 -0.1819,-0.6792 -0.1467,-1.1033 -0.1467,-1.1033z" />
   <path
   id="_38946880"
   class="fil2 str3"
   d="M134.926 169.615c0,0 0.9256,0.9469 1.0596,1.3179 0.1604,0.4442 0.0546,0.9412 -0.0449,1.4074 0,0 -0.8707,-0.977 -0.9946,-1.6699 -0.1236,-0.6929 -0.0201,-1.0554 -0.0201,-1.0554z" />
   <path
   id="_38945752"
   class="fil2 str3"
   d="M134.99 170.849c0,0 0.8591,0.9423 0.9539,1.3255 0.1142,0.4614 0.0034,1.0525 -0.1442,1.5079 0,0 -0.8281,-1.1263 -0.9084,-1.8286 -0.0512,-0.7019 0.0987,-1.0048 0.0987,-1.0048z" />
   <path
   id="_38944648"
   class="fil2 str3"
   d="M134.942 172.093c0,0 0.7799,1.0856 0.8434,1.4755 0.0729,0.4472 -0.0584,0.7528 -0.2392,1.1859 0,0 -0.5905,-0.9305 -0.6869,-1.6054 -0.0522,-0.5878 0.0827,-1.056 0.0827,-1.056z" />
   <path
   id="_38943544"
   class="fil2 str3"
   d="M134.856 173.199c0,0 0.59,0.8753 0.6535,1.2477 0.1313,0.5247 -0.3094,0.9857 -0.5485,1.0317 0,0 -0.3167,-0.6863 -0.311,-1.3589 0.0059,-0.6725 0.206,-0.9205 0.206,-0.9205z" />
   <path
   id="_38942440"
   class="fil2 str3"
   d="M134.627 174.051c0,0 0.401,0.9387 0.3719,1.2505 -0.0332,0.3575 -0.1871,0.5013 -0.4813,0.5493 -0.3483,-0.4956 -0.5623,-1.4109 0.1094,-1.7998z" />
   <path
   id="_38941336"
   class="fil2 str3"
   d="M123.139 175.931c0,0 -0.8874,-0.1664 -1.1143,-0.4871 -0.2433,-0.3437 -0.3409,-0.8483 -0.365,-1.2734 0,0 1.1508,0.7387 1.4529,1.372 0.1239,0.2553 0.0264,0.3885 0.0264,0.3885z" />
   <path
   id="_38940096"
   class="fil2 str3"
   d="M123.018 175.396c0,0 -1.0106,-0.7753 -1.2441,-1.0921 -0.2797,-0.38 -0.3206,-0.8473 -0.2914,-1.329 0,0 0.9211,0.7332 1.2355,1.3616 0.3142,0.6281 0.3,1.0595 0.3,1.0595z" />
   <path
   id="_38938992"
   class="fil2 str3"
   d="M122.656 174.224c0,0 -0.9817,-0.8145 -1.1452,-1.1731 -0.1933,-0.497 -0.1967,-0.9226 -0.087,-1.3942 0,0 0.9303,0.8664 1.0898,1.4635 0.1792,0.6799 0.1424,1.1038 0.1424,1.1038z" />
   <path
   id="_38937888"
   class="fil2 str3"
   d="M122.496 173.03c0,0 -0.9221,-0.9504 -1.0547,-1.322 -0.1587,-0.4448 -0.0511,-0.9414 0.0502,-1.4072 0,0 0.867,0.9803 0.9883,1.6737 0.1211,0.6934 0.0162,1.0555 0.0162,1.0555z" />
   <path
   id="_38936760"
   class="fil2 str3"
   d="M122.435 171.796c0,0 -0.8555,-0.9455 -0.9489,-1.3291 -0.1124,-0.4618 0.0006,-1.0525 0.1498,-1.5073 0,0 0.8239,1.1294 0.9016,1.832 0.0486,0.702 -0.1025,1.0044 -0.1025,1.0044z" />
   <path
   id="_38935656"
   class="fil2 str3"
   d="M122.489 170.552c0,0 -0.7758,-1.0885 -0.8378,-1.4787 -0.0713,-0.4474 0.0611,-0.7526 0.2436,-1.1849 0,0 0.587,0.9326 0.6808,1.6079 0.0501,0.588 -0.0866,1.0557 -0.0866,1.0557z" />
   <path
   id="_38934552"
   class="fil2 str3"
   d="M122.579 169.446c0,0 -0.5867,-0.8774 -0.6487,-1.2502 -0.1294,-0.5251 0.313,-0.9844 0.5523,-1.0295 0,0 0.3141,0.6875 0.3059,1.36 -0.0084,0.6725 -0.2095,0.9197 -0.2095,0.9197z" />
   <path
   id="_38933448"
   class="fil2 str3"
   d="M122.832 168.646c0,0 -0.4185,-0.9907 -0.3882,-1.3024 0.0346,-0.3574 0.189,-0.5006 0.4834,-0.5475 0.3464,0.4969 0.5779,1.4636 -0.0952,1.8499z" />
   <path
   id="_38932656"
   class="fil2 str3"
   d="M124.319 137.112c0.2911,-0.199 0.9524,-0.2814 1.1675,-0.2753 0.3582,0.01 0.5004,0.1375 0.4847,0.4369 0,0 -1.2739,0.7443 -1.6738,0.5391 -0.1828,-0.0167 -0.2859,-0.4452 0.0216,-0.7007z" />
   <path
   id="_38931856"
   class="fil2 str3"
   d="M124.443 137.607c0,0 0.8371,-0.2479 1.1913,-0.299 0.414,-0.0809 0.6211,0.0385 0.5964,0.4101 0,0 -1.2992,0.7214 -1.7648,0.5779 -0.4656,-0.1434 -0.2932,-0.5647 -0.0229,-0.689z" />
   <path
   id="_38930336"
   class="fil2 str3"
   d="M124.642 138.222c0,0 1.1641,-0.435 1.5193,-0.5008 0.2397,-0.0005 0.4959,0.2985 0.1386,0.605 0,0 -0.9765,0.4819 -1.4592,0.5501 -0.5125,-0.075 -0.3751,-0.5807 -0.1987,-0.6543z" />
  </g>
  <g
   id="_39985616">
   <g
   id="g171">
    <path
   id="_85532000"
   class="fil2 str2"
   d="M118.286 201.237c-0.3244,-1.7303 0.0927,-3.3284 -0.6014,-5.1681 -0.8354,-1.9983 -2.9075,-2.187 -3.5312,-2.1919l-25.6342 -0.2413c-2.6343,-0.2566 -0.3384,3.1393 1.127,3.0631 -2.1683,0.1127 1.2077,3.0031 2.713,2.804 -2.2816,0.3018 1.7288,2.6692 3.8395,2.2236 -1.4016,0.2959 0.8635,2.7006 4.2213,1.6557 -1.723,0.5362 1.7665,2.5746 3.818,1.6239 -1.9878,0.8602 2.1973,2.4201 3.7252,1.3486 -1.1091,0.7541 1.9864,1.8181 3.7649,0.5362 -0.8757,0.9561 2.4674,1.4513 2.9024,0.5447 -0.4396,0.8174 2.1922,0.9107 2.4642,0.0265 -0.2825,0.8387 1.8581,0.7239 1.9509,0.0909 -0.0638,0.435 1.7188,0.6519 1.6965,-0.0779 0.0104,0.5659 1.5112,0.3348 1.4713,-0.0492 0.4399,0.4643 1.9186,-0.0535 2.4813,-0.3884l-1.6304 -4.339c-1.4197,0.1051 -4.4929,0.5269 -4.7783,-1.4614z" />
    <line
   id="_40021424"
   class="fil4 str2"
   x1="121.553"
   y1="202.752"
   x2="122.251"
   y2="207.692" />
    <line
   id="_86070176"
   class="fil4 str2"
   x1="110.416"
   y1="195.618"
   x2="89.6457"
   y2="196.698" />
    <line
   id="_85532112"
   class="fil4 str2"
   x1="112.217"
   y1="196.876"
   x2="92.3587"
   y2="199.502" />
    <line
   id="_23386680"
   class="fil4 str2"
   x1="112.835"
   y1="198.214"
   x2="96.1882"
   y2="201.728" />
    <line
   id="_39245584"
   class="fil4 str2"
   x1="113.651"
   y1="199.264"
   x2="100.42"
   y2="203.382" />
    <line
   id="_38777840"
   class="fil4 str2"
   x1="114.73"
   y1="200.143"
   x2="104.238"
   y2="205.006" />
    <line
   id="_39597936"
   class="fil4 str2"
   x1="115.804"
   y1="200.739"
   x2="107.929"
   y2="206.378" />
    <line
   id="_23386656"
   class="fil4 str2"
   x1="117.066"
   y1="201.13"
   x2="111.728"
   y2="206.89" />
    <line
   id="_84939688"
   class="fil4 str2"
   x1="118.286"
   y1="201.237"
   x2="114.63"
   y2="207.435" />
    <path
   id="_40467360"
   class="fil4 str2"
   d="M97.0535 193.716c-1.8419,-0.0176 -0.0613,2.6006 1.1107,2.5396 -2.0417,0.1062 0.5952,2.4006 1.9305,2.224 -1.745,0.2308 0.6339,2.2905 2.0515,1.9912 -1.4956,0.3157 1.2881,1.9732 2.5487,1.5809 -1.5326,0.4769 1.9749,1.8271 3.0272,1.3395 -1.3291,0.6159 1.8781,1.7907 2.7648,1.1557 -0.869,0.6223 2.2786,1.2456 2.8907,0.5634 -0.6938,0.7732 1.9538,1.1487 2.4004,0.3785 -0.4917,0.8479 1.7278,0.7496 1.9125,0.2029 -0.1991,0.5912 1.525,0.6993 1.5984,0.1992 -0.0638,0.4345 1.4325,0.543 1.4194,0.0369 0.0096,0.4469 1.3383,0.3206 1.2901,-0.0205 0.342,0.3515 1.7118,-0.0059 2.1899,-0.2163" />
    <path
   id="_84939576"
   class="fil4 str2"
   d="M104.739 193.788c-1.5192,-0.0143 0.1392,2.1181 0.7975,2.0838 -1.4606,0.076 0.3618,1.84 1.1401,1.737 -1.4305,0.1892 0.4603,1.8083 1.1647,1.6596 -1.1519,0.2432 0.8156,1.5501 1.3721,1.377 -1.0839,0.3373 1.3369,1.435 1.7978,1.2215 -0.923,0.4277 1.5472,1.1963 2.174,0.7474 -0.7004,0.5016 1.4559,1.1594 1.9684,0.5795 -0.5357,0.6058 1.3397,1.0926 1.6957,0.4787 -0.3966,0.684 1.2678,0.7532 1.4268,0.2812 -0.1724,0.5119 1.2188,0.5345 1.2833,0.1913 -0.0722,0.3954 1.1223,0.4283 1.113,0.1029 0.0098,0.4558 1.1338,0.2964 1.0765,0.0263 0.5079,0.3192 1.7371,-0.0479 1.7794,-0.341" />
    <path
   id="_85840624"
   class="fil4 str2"
   d="M110.358 195.621c0.7507,-0.0391 1.5774,0.5627 1.829,1.2551 1.0312,2.6763 3.4606,4.4049 6.0975,4.3602" />
    <line
   id="_23386704"
   class="fil4 str2"
   x1="118.849"
   y1="202.253"
   x2="117.085"
   y2="207.488" />
    <line
   id="_39761264"
   class="fil4 str2"
   x1="119.761"
   y1="202.669"
   x2="119.045"
   y2="207.552" />
    <line
   id="_39312120"
   class="fil4 str2"
   x1="120.64"
   y1="202.774"
   x2="120.742"
   y2="207.475" />
   </g>
   <g
   id="g189">
    <path
   id="_39245464"
   class="fil2 str2"
   d="M138.718 201.237c0.3244,-1.7303 -0.0927,-3.3284 0.6014,-5.1681 0.8354,-1.9983 2.9075,-2.187 3.5312,-2.1919l25.6342 -0.2413c2.6343,-0.2566 0.3384,3.1393 -1.127,3.0631 2.1683,0.1127 -1.2077,3.0031 -2.713,2.804 2.2816,0.3018 -1.7288,2.6692 -3.8395,2.2236 1.4016,0.2959 -0.8635,2.7006 -4.2213,1.6557 1.723,0.5362 -1.7665,2.5746 -3.818,1.6239 1.9878,0.8602 -2.1973,2.4201 -3.7252,1.3486 1.1091,0.7541 -1.9864,1.8181 -3.7649,0.5362 0.8757,0.9561 -2.4674,1.4513 -2.9024,0.5447 0.4396,0.8174 -2.1922,0.9107 -2.4642,0.0265 0.2825,0.8387 -1.8581,0.7239 -1.9509,0.0909 0.0638,0.435 -1.7188,0.6519 -1.6965,-0.0779 -0.0104,0.5659 -1.5112,0.3348 -1.4713,-0.0492 -0.4399,0.4643 -1.9186,-0.0535 -2.4813,-0.3884l1.6304 -4.339c1.4197,0.1051 4.4929,0.5269 4.7783,-1.4614z" />
    <line
   id="_40993816"
   class="fil4 str2"
   x1="135.451"
   y1="202.752"
   x2="134.753"
   y2="207.692" />
    <line
   id="_38878912"
   class="fil4 str2"
   x1="146.588"
   y1="195.618"
   x2="167.358"
   y2="196.698" />
    <line
   id="_38877688"
   class="fil4 str2"
   x1="144.786"
   y1="196.876"
   x2="164.645"
   y2="199.502" />
    <line
   id="_40723888"
   class="fil4 str2"
   x1="144.169"
   y1="198.214"
   x2="160.815"
   y2="201.728" />
    <line
   id="_39571192"
   class="fil4 str2"
   x1="143.353"
   y1="199.264"
   x2="156.584"
   y2="203.382" />
    <line
   id="_23386536"
   class="fil4 str2"
   x1="142.274"
   y1="200.143"
   x2="152.766"
   y2="205.006" />
    <line
   id="_39750200"
   class="fil4 str2"
   x1="141.2"
   y1="200.739"
   x2="149.074"
   y2="206.378" />
    <line
   id="_23386296"
   class="fil4 str2"
   x1="139.938"
   y1="201.13"
   x2="145.276"
   y2="206.89" />
    <line
   id="_39124944"
   class="fil4 str2"
   x1="138.718"
   y1="201.237"
   x2="142.373"
   y2="207.435" />
    <path
   id="_39316176"
   class="fil4 str2"
   d="M159.95 193.716c1.8419,-0.0176 0.0613,2.6006 -1.1107,2.5396 2.0417,0.1062 -0.5952,2.4006 -1.9305,2.224 1.745,0.2308 -0.6339,2.2905 -2.0515,1.9912 1.4956,0.3157 -1.2881,1.9732 -2.5487,1.5809 1.5326,0.4769 -1.9749,1.8271 -3.0272,1.3395 1.3291,0.6159 -1.8781,1.7907 -2.7648,1.1557 0.869,0.6223 -2.2786,1.2456 -2.8907,0.5634 0.6938,0.7732 -1.9538,1.1487 -2.4004,0.3785 0.4917,0.8479 -1.7278,0.7496 -1.9125,0.2029 0.1991,0.5912 -1.525,0.6993 -1.5984,0.1992 0.0638,0.4345 -1.4325,0.543 -1.4194,0.0369 -0.0096,0.4469 -1.3383,0.3206 -1.2901,-0.0205 -0.342,0.3515 -1.7118,-0.0059 -2.1899,-0.2163" />
    <path
   id="_39315864"
   class="fil4 str2"
   d="M152.265 193.788c1.5192,-0.0143 -0.1392,2.1181 -0.7975,2.0838 1.4606,0.076 -0.3618,1.84 -1.1401,1.737 1.4305,0.1892 -0.4603,1.8083 -1.1647,1.6596 1.1519,0.2432 -0.8156,1.5501 -1.3721,1.377 1.0839,0.3373 -1.3369,1.435 -1.7978,1.2215 0.923,0.4277 -1.5472,1.1963 -2.174,0.7474 0.7004,0.5016 -1.4559,1.1594 -1.9684,0.5795 0.5357,0.6058 -1.3397,1.0926 -1.6957,0.4787 0.3966,0.684 -1.2678,0.7532 -1.4268,0.2812 0.1724,0.5119 -1.2188,0.5345 -1.2833,0.1913 0.0722,0.3954 -1.1223,0.4283 -1.113,0.1029 -0.0098,0.4558 -1.1338,0.2964 -1.0765,0.0263 -0.5079,0.3192 -1.7371,-0.0479 -1.7794,-0.341" />
    <path
   id="_39319568"
   class="fil4 str2"
   d="M146.645 195.621c-0.7507,-0.0391 -1.5774,0.5627 -1.829,1.2551 -1.0312,2.6763 -3.4606,4.4049 -6.0975,4.3602" />
    <line
   id="_38257576"
   class="fil4 str2"
   x1="138.155"
   y1="202.253"
   x2="139.918"
   y2="207.488" />
    <line
   id="_38639176"
   class="fil4 str2"
   x1="137.242"
   y1="202.669"
   x2="137.958"
   y2="207.552" />
    <line
   id="_40392192"
   class="fil4 str2"
   x1="136.363"
   y1="202.774"
   x2="136.262"
   y2="207.475" />
   </g>
   <g
   id="g207">
    <path
   id="_40059848"
   class="fil2 str3"
   d="M120.912 195.349c0,0 5.9212,-1.6359 7.5897,-1.5936 1.6687,0.0432 7.4677,1.5936 7.4677,1.5936 0,0 -1.4645,9.3698 -2.7674,11.5798 -1.3028,2.21 -4.7003,6.0342 -4.7003,6.0342 0,0 -4.2529,-4.7176 -5.2704,-7.1819 -1.0172,-2.4639 -2.3193,-10.4321 -2.3193,-10.4321z" />
    <path
   id="_40036848"
   class="fil6 str3"
   d="M124.251 204.823c0.2765,0.6218 0.5613,1.197 0.7298,1.4653l7.0128 0c0.7617,-1.1731 0.8611,-2.0393 1.3689,-4.1258l-9.914 -0.0001c0.2648,1.0871 0.5443,2.0739 0.8025,2.6606z" />
    <path
   id="_84906992"
   class="fil3 str3"
   d="M128.502 210.7c0.1177,-0.118 2.3008,-2.5998 3.4918,-4.4123l-7.0127 0c1.3289,2.0306 3.414,4.2949 3.5209,4.4123z" />
    <path
   id="_85530768"
   class="fil7 str3"
   d="M128.621 195.46c-1.3837,-0.0331 -6.2932,1.2407 -6.2932,1.2407 0,0 0.5205,2.9907 1.121,5.4611l9.9137 0.0003 1.0693 -5.5555c0,0 -4.427,-1.1135 -5.8108,-1.1466z" />
   </g>
  </g>
 </g>
 <g
   id="contorno">
  <metadata
   id="CorelCorpID_5Corel-Layer" />
  <polygon
   class="fil4 str4"
   points="191.77,226.128 191.77,80.425 65.2119,80.425 65.2119,226.128 65.2228,226.378 65.2349,226.638 65.2435,226.822 65.2627,227.076 65.2996,227.332 65.3408,227.619 65.3675,227.779 65.4086,228.006 65.4713,228.263 65.5386,228.511 65.594,228.717 65.654,228.926 65.7451,229.168 65.8481,229.448 65.9895,229.803 66.0942,230.009 66.1961,230.215 66.3056,230.429 66.4228,230.646 66.5171,230.802 66.6231,230.965 66.7418,231.147 66.9412,231.442 67.0988,231.652 67.2432,231.83 67.3854,232.003 67.536,232.18 67.7,232.353 67.8747,232.531 68.0496,232.702 68.2244,232.864 68.4189,233.035 68.5931,233.175 68.7644,233.314 68.9357,233.444 69.1593,233.596 69.3655,233.728 69.54,233.839 69.7406,233.965 69.9675,234.085 70.1555,234.185 70.3612,234.284 70.5915,234.394 70.8477,234.499 71.0683,234.582 71.2643,234.658 71.4627,234.731 71.672,234.79 71.9257,234.857 72.1454,234.915 72.3654,234.968 72.6283,235.015 72.8237,235.046 73.0346,235.079 73.3007,235.118 73.5218,235.133 73.7348,235.145 73.9925,235.159 74.2517,235.168 119.451,235.168 119.712,235.18 119.949,235.191 120.208,235.207 120.463,235.224 120.698,235.26 120.936,235.299 121.15,235.336 121.318,235.365 121.467,235.394 121.642,235.442 121.783,235.483 121.914,235.52 122.033,235.552 122.172,235.593 122.298,235.63 122.437,235.675 122.664,235.762 122.871,235.848 123.11,235.941 123.261,236.009 123.394,236.074 123.685,236.227 123.858,236.326 124.019,236.413 124.16,236.492 124.258,236.552 124.46,236.687 124.647,236.819 124.838,236.956 125.077,237.135 125.289,237.309 125.468,237.47 125.653,237.635 125.841,237.812 126.023,238.01 126.206,238.212 126.369,238.393 126.516,238.568 126.674,238.783 126.824,238.986 126.951,239.169 127.104,239.392 127.234,239.618 127.344,239.817 127.455,240.016 127.595,240.281 127.702,240.517 127.811,240.782 127.902,241 127.982,241.218 128.061,241.459 128.129,241.713 128.201,241.96 128.262,242.186 128.314,242.451 128.349,242.66 128.388,242.886 128.424,243.105 128.434,243.205 128.452,243.412 128.461,243.59 128.471,243.785 128.48,243.965 128.491,244.208 128.502,243.965 128.511,243.785 128.52,243.59 128.53,243.412 128.548,243.205 128.558,243.105 128.594,242.886 128.632,242.66 128.668,242.451 128.719,242.186 128.78,241.96 128.852,241.713 128.92,241.459 128.999,241.218 129.079,241 129.17,240.782 129.279,240.517 129.387,240.281 129.527,240.016 129.637,239.817 129.748,239.618 129.877,239.392 130.031,239.169 130.158,238.986 130.308,238.783 130.465,238.568 130.613,238.393 130.776,238.212 130.959,238.01 131.14,237.812 131.329,237.635 131.513,237.47 131.693,237.309 131.905,237.135 132.143,236.956 132.335,236.819 132.521,236.687 132.723,236.552 132.822,236.492 132.963,236.413 133.123,236.326 133.296,236.227 133.587,236.074 133.72,236.009 133.872,235.941 134.11,235.848 134.318,235.762 134.544,235.675 134.683,235.63 134.81,235.593 134.949,235.552 135.068,235.52 135.198,235.483 135.339,235.442 135.515,235.394 135.664,235.365 135.832,235.336 136.045,235.299 136.284,235.26 136.518,235.224 136.773,235.207 137.032,235.191 137.27,235.18 137.531,235.168 182.73,235.168 182.989,235.159 183.247,235.145 183.46,235.133 183.681,235.118 183.947,235.079 184.158,235.046 184.353,235.015 184.616,234.968 184.836,234.915 185.056,234.857 185.31,234.79 185.519,234.731 185.717,234.658 185.913,234.582 186.134,234.499 186.39,234.394 186.62,234.284 186.826,234.185 187.014,234.085 187.241,233.965 187.442,233.839 187.616,233.728 187.822,233.596 188.046,233.444 188.217,233.314 188.388,233.175 188.563,233.035 188.757,232.864 188.932,232.702 189.107,232.531 189.282,232.353 189.446,232.18 189.596,232.003 189.738,231.83 189.883,231.652 190.04,231.442 190.24,231.147 190.359,230.965 190.464,230.802 190.559,230.646 190.676,230.429 190.785,230.215 190.887,230.009 190.992,229.803 191.134,229.448 191.237,229.168 191.328,228.926 191.388,228.717 191.443,228.511 191.51,228.263 191.573,228.006 191.614,227.779 191.641,227.619 191.682,227.332 191.719,227.076 191.738,226.822 191.747,226.638 191.759,226.378 "
   id="polygon215" />
 </g>
 <g
   id="fondo_x0020_labriequines">
  <metadata
   id="CorelCorpID_6Corel-Layer" />
  <path
   class="fil0"
   d="M229.498 149.96c-6.5712,0.4827 -14.5059,-5.1579 -15.9101,-11.9998 -1.8122,0.8684 -3.2895,3.0015 -4.0685,5.1793 -2.6334,-3.647 -6.224,-5.9464 -10.2587,-7.6879 -1.9038,7.0745 1.3113,13.2542 4.3416,16.913 -2.5311,0.1417 -5.2976,1.1602 -7.012,2.7916 4.6411,5.3259 17.7506,8.3393 24.2877,8.1331 4.9739,-0.518 7.7051,-6.4311 8.62,-13.3293z"
   id="path219" />
  <path
   class="fil2"
   d="M222.3 17.7993c0.4391,-1.997 0.82,-4.2791 1.4995,-5.7228 1.4588,-3.0984 4.4624,-3.909 4.6879,-1.8142 0.3554,3.3043 -2.7443,5.8169 -6.1874,7.537zm-30.7266 33.7059c-4.3696,2.5443 -8.4286,9.6787 -9.5119,12.3269 -2.5833,6.3136 -5.0659,15.1029 -1.8089,29.4724 9.039,-5.5474 10.6602,-10.5193 12.7566,-19.0834 -1.2834,5.3387 -1.6774,9.4745 0.5201,14.457 3.5607,8.072 8.9063,11.746 9.2313,23.4353 7.7844,-10.4112 9.1569,-32.3017 6.6595,-44.4376 1.8693,3.4354 6.7528,7.9812 11.9539,9.5292 4.1489,1.2349 8.5,0.5624 11.6839,-4.1034 -10.7423,-6.3362 -15.943,-21.5553 -10.5944,-32.9681 1.8121,3.3738 4.1699,8.3135 8.0173,11.1002 1.9929,-3.5861 4.2015,-10.6084 3.759,-14.9048 2.4966,2.3166 9.3533,1.7053 10.3245,0.1762 -3.4448,-3.3293 -2.6321,-8.3599 -2.2156,-13.6645 0.7864,-10.0143 2.8343,-20.7764 -9.0599,-21.2956 -9.014,-0.3932 -14.0573,12.0208 -17.9918,18.7086 -5.6706,1.2378 -13.1403,1.5751 -16.5678,1.1294 -0.5103,4.4464 1.0209,8.2071 5.5716,10.1433 -8.9947,7.8706 -19.3565,11.1063 -31.0844,12.748 5.8358,5.8929 12.3679,8.1849 18.357,7.2309z"
   id="path221" />
  <path
   class="fil0"
   d="M27.4862 149.96c6.5712,0.4827 14.5059,-5.1579 15.9101,-11.9998 1.8121,0.8684 3.2895,3.0015 4.0684,5.1793 2.6334,-3.647 6.224,-5.9464 10.2588,-7.6879 1.9038,7.0745 -1.3114,13.2542 -4.3416,16.913 2.5311,0.1417 5.2976,1.1602 7.012,2.7916 -4.6412,5.3259 -17.7507,8.3393 -24.2877,8.1331 -4.9739,-0.518 -7.7051,-6.4311 -8.62,-13.3293z"
   id="path223" />
  <path
   class="fil2"
   d="M34.6843 17.7993c-0.4392,-1.997 -0.82,-4.2791 -1.4995,-5.7228 -1.4589,-3.0984 -4.4624,-3.909 -4.688,-1.8142 -0.3554,3.3043 2.7443,5.8169 6.1875,7.537zm30.7266 33.7059c4.3695,2.5443 8.4285,9.6787 9.5119,12.3269 2.5832,6.3136 5.0659,15.1029 1.8088,29.4724 -9.039,-5.5474 -10.6601,-10.5193 -12.7566,-19.0834 1.2835,5.3387 1.6774,9.4745 -0.5201,14.457 -3.5606,8.072 -8.9063,11.746 -9.2313,23.4353 -7.7843,-10.4112 -9.1569,-32.3017 -6.6595,-44.4376 -1.8692,3.4354 -6.7527,7.9812 -11.9538,9.5292 -4.149,1.2349 -8.5,0.5624 -11.6839,-4.1034 10.7423,-6.3362 15.9429,-21.5553 10.5944,-32.9681 -1.8122,3.3738 -4.1699,8.3135 -8.0173,11.1002 -1.9929,-3.5861 -4.2015,-10.6084 -3.7591,-14.9048 -2.4966,2.3166 -9.3533,1.7053 -10.3245,0.1762 3.4448,-3.3293 2.6322,-8.3599 2.2156,-13.6645 -0.7863,-10.0143 -2.8343,-20.7764 9.06,-21.2956 9.0139,-0.3932 14.0573,12.0208 17.9917,18.7086 5.6707,1.2378 13.1404,1.5751 16.5679,1.1294 0.5102,4.4464 -1.0209,8.2071 -5.5717,10.1433 8.9947,7.8706 19.3566,11.1063 31.0845,12.748 -5.8358,5.8929 -12.368,8.1849 -18.357,7.2309z"
   id="path225" />
  <path
   class="fil0"
   d="M214.221 117.627c0,3.688 -2.7883,7.6422 -1.5406,15.2363 2.2477,-0.6294 5.6206,-4.3827 6.3863,-5.7232 0.4326,3.5117 -0.5492,10.7633 4.4879,14.0154 2.168,-2.9962 3.6584,-7.4705 3.711,-10.3533 2.2584,4.4727 3.1426,12.302 2.2329,19.1581 -0.9149,6.8982 -3.6461,12.8113 -8.62,13.3293 14.8641,0 22.1912,-16.9195 20.7751,-29.6761 -0.0875,-0.7908 -0.2099,-1.5657 -0.3648,-2.3191 1.829,1.829 6.4262,1.7941 8.5892,4.9381 0.9038,-9.9539 -4.3293,-12.6995 -9.7642,-18.2243 2.9046,0.954 6.706,0.8172 9.8435,-0.4203 -14.8995,-11.7985 -23.51,-23.4557 -28.5829,-40.383 -5.2011,-1.548 -10.0846,-6.0938 -11.9539,-9.5292 1.6399,7.9692 1.6112,20.1446 -0.806,30.5138 1.4223,11.421 -2.2567,21.4764 -1.2563,24.1973 0.7789,-0.5912 4.3264,-0.0468 6.8628,-4.7598z"
   id="path227" />
  <path
   class="fil0"
   d="M42.7637 117.627c0,3.688 2.7883,7.6422 1.5406,15.2363 -2.2477,-0.6294 -5.6206,-4.3827 -6.3863,-5.7232 -0.4326,3.5117 0.5492,10.7633 -4.4879,14.0154 -2.168,-2.9962 -3.6584,-7.4705 -3.711,-10.3533 -2.2584,4.4727 -3.1426,12.302 -2.2329,19.1581 0.9149,6.8982 3.6461,12.8113 8.62,13.3293 -14.8641,0 -22.1912,-16.9195 -20.7751,-29.6761 0.0875,-0.7908 0.2099,-1.5657 0.3648,-2.3191 -1.829,1.829 -6.4262,1.7941 -8.5892,4.9381 -0.9038,-9.9539 4.3293,-12.6995 9.7642,-18.2243 -2.9046,0.954 -6.706,0.8172 -9.8435,-0.4203 14.8995,-11.7985 23.51,-23.4557 28.5829,-40.383 5.2011,-1.548 10.0846,-6.0938 11.9539,-9.5292 -1.6399,7.9692 -1.6112,20.1446 0.806,30.5138 -1.4223,11.421 2.2567,21.4764 1.2563,24.1973 -0.7789,-0.5912 -4.3264,-0.0468 -6.8628,-4.7598z"
   id="path229" />
 </g>
 <g
   id="lambriequin">
  <metadata
   id="CorelCorpID_7Corel-Layer" />
  <g
   id="_38610528">
   <path
   id="path2931"
   class="fil5 str1"
   d="M113.878 48.5956l-4.2132 -6.4815c0,0 25.2805,-12.4724 25.2805,-12.4724 0.1521,-0.2106 -28.4929,-7.8309 -28.1606,-9.7166 3.1979,-10.7801 30.7162,-20.8989 39.7929,1.8898 2.832,7.1101 0.5577,16.6553 -7.0367,24.663 -0.7705,1.7177 -0.4976,8.4906 1.6226,9.9946 1.7751,1.6025 5.497,3.3475 10.545,3.5406 -4.753,1.3979 -7.0565,5.9962 -8.3816,8.5028 -1.7872,3.3804 -5.1549,12.5995 -12.3649,16.4458 -6.0761,3.1421 -15.4271,3.2367 -22.5254,1.3108 -10.4896,-3.591 -9.8279,-15.9947 -8.9661,-20.0705 0.265,-1.2533 1.0949,-2.5752 2.1551,-3.0765 0.6957,-0.329 2.5832,-0.0554 3.2769,-0.1436 2.9078,-0.3696 5.9529,-2.6159 7.4031,-4.0846 0.6353,-0.6435 1.4759,-2.7449 1.7068,-5.1606l-0.1344 -5.1411z"
   nodetypes="ccccscssssscsssscssssssc" />
   <path
   id="path2935"
   class="fil8 str1"
   d="M106.657 21.2107l25.8664 9.3153 -22.8585 11.5881c-6.0579,-7.6549 -6.7265,-12.2703 -3.0079,-20.9034z"
   nodetypes="cccc" />
   <path
   id="path3482"
   class="fil5 str1"
   d="M106.979 20.1795l2.4874 1.2484c0,0 -2.4628,4.433 -1.9203,10.0883 0.3204,3.3395 2.0979,6.1383 3.3891,7.7707 0.7779,0.9833 1.3793,2.3337 1.3793,2.3337l-2.9478 0.8581c0,0 -0.4733,-1.296 -1.1266,-2.1741 -1.3082,-1.7585 -3.3382,-5.0107 -3.7363,-8.6894 -0.5969,-5.5159 2.4752,-11.4357 2.4752,-11.4357z"
   nodetypes="ccssccssc" />
   <path
   id="path3484"
   class="fil5 str1"
   d="M113.144 20.1795l2.4873 1.2484c0,0 -2.4628,4.433 -1.9203,10.0883 0.5134,5.3513 4.7684,9.3141 4.7684,9.3141l-2.9477 0.858c0,0 -4.266,-4.5571 -4.8629,-10.0731 -0.5969,-5.5159 2.4752,-11.4357 2.4752,-11.4357z"
   nodetypes="ccsccsc" />
   <path
   id="path3486"
   class="fil5 str1"
   d="M121.091 23.0105c-0.6809,1.7779 -1.5612,4.8923 -1.2145,8.5057 0.2532,2.6393 1.4166,4.9409 2.5307,6.5958l-2.2171 1.666c-1.29,-1.8384 -2.9947,-4.825 -3.3559,-8.1628 -0.4011,-3.7061 0.8542,-7.5945 1.7211,-9.7472l2.5357 1.1425z"
   nodetypes="csccscc" />
   <path
   id="path3488"
   class="fil5 str1"
   d="M126.324 26.2549c-0.3007,1.5232 -0.4686,3.3202 -0.2823,5.2613 0.1112,1.1607 0.3987,2.2562 0.7805,3.26l-2.6574 1.1104c-0.5567,-1.3004 -1.0007,-2.7494 -1.1654,-4.2714 -0.2602,-2.4039 0.1766,-4.8846 0.7521,-6.9185l2.5725 1.5582z"
   nodetypes="csccscc" />
   <path
   id="path4484"
   class="fil5 str5"
   d="M112.862 11.4447c-4.5272,1.6361 -8.5815,9.0858 -8.5815,9.0858 3.4065,3.0801 8.976,6.325 18.5433,7.9605 6.2863,1.0742 9.5291,1.4792 10.154,1.5383 0.2014,0.0511 0.4119,0.0699 0.6172,0.0562 0.6993,-0.0005 1.2624,-0.3692 1.3378,-0.8754 0.0754,-0.5067 -0.3575,-1.006 -1.0294,-1.1872 -0.405,-0.2307 -3.7155,-2.1241 -7.8404,-4.9769 -4.383,-3.0319 -11.9563,-10.2095 -13.201,-11.6013z"
   nodetypes="ccsccscsc" />
   <path
   id="path4486"
   class="fil5 str5"
   d="M110.786 12.5888c3.5133,4.0629 7.2296,7.172 9.6073,9.1131 1.5413,1.2577 6.4729,4.5832 7.8111,5.4461 -2.6175,-0.3846 -4.4008,-0.5578 -7.0751,-1.173 -6.6183,-1.5225 -12.7478,-4.3203 -15.7492,-7.2544 0.5861,-0.872 2.7248,-4.3418 5.4059,-6.1318z"
   nodetypes="cscscc" />
   <path
   id="path4490"
   class="fil5 str5"
   d="M107.939 18.1344c0.0535,0.3817 -0.2204,0.7033 -0.6124,0.7192 -0.3921,0.0153 -0.7535,-0.2812 -0.8074,-0.6624 -0.054,-0.3812 0.2198,-0.7033 0.6119,-0.7186 0.392,-0.0159 0.754,0.2806 0.8074,0.6618l0.0005 0z"
   type="arc"
   cx="427.85715"
   cy="434.50504"
   rx="13.571428"
   ry="13.571428" />
   <path
   id="path4492"
   class="fil5 str5"
   d="M111.413 20.0829c0.0534,0.3812 -0.2204,0.7033 -0.6124,0.7192 -0.392,0.0153 -0.754,-0.2812 -0.808,-0.6624 -0.0539,-0.3812 0.2205,-0.7033 0.6125,-0.7192 0.392,-0.0153 0.7534,0.2812 0.8074,0.6624l0.0005 0z"
   type="arc"
   cx="427.85715"
   cy="434.50504"
   rx="13.571428"
   ry="13.571428" />
   <path
   id="path4494"
   class="fil5 str5"
   d="M115.099 22.0552c0.054,0.3818 -0.2204,0.7039 -0.6124,0.7192 -0.392,0.0159 -0.7534,-0.2806 -0.8075,-0.6624 -0.0539,-0.3811 0.2199,-0.7032 0.612,-0.7186 0.392,-0.0159 0.7539,0.2807 0.808,0.6624l-0.0001 -0.0006z"
   type="arc"
   cx="427.85715"
   cy="434.50504"
   rx="13.571428"
   ry="13.571428" />
   <path
   id="path4496"
   class="fil5 str5"
   d="M119.152 23.4936c0.054,0.3817 -0.2204,0.7038 -0.6124,0.7192 -0.392,0.0159 -0.7534,-0.2806 -0.8074,-0.6618 -0.054,-0.3818 0.2199,-0.7033 0.6119,-0.7192 0.392,-0.0159 0.754,0.2806 0.808,0.6624l-0.0001 -0.0006z"
   type="arc"
   cx="427.85715"
   cy="434.50504"
   rx="13.571428"
   ry="13.571428" />
   <path
   id="path4532"
   class="fil5 str5"
   d="M110.538 46.8205c3.8431,-0.0313 11.6958,-3.3914 16.011,-7.4395 4.0693,-3.8169 7.698,-8.1201 7.9967,-8.5456 0.1385,-0.1193 0.238,-0.263 0.2923,-0.4209 0.2457,-0.5124 -0.0443,-1.1226 -0.6897,-1.4503 -0.6448,-0.3278 -1.4605,-0.2795 -1.9381,0.1141 -0.4487,0.1727 -4.1291,1.5753 -9.3696,3.0574 -5.5681,1.5753 -14.5918,3.0375 -19.2706,3.2568 0.1485,3.3426 4.9972,9.3159 6.968,11.428z"
   nodetypes="csccscscc" />
   <path
   id="path4534"
   class="fil5 str5"
   d="M104.27 37.9119c8.5493,-0.5505 17.5703,-2.7364 25.5209,-5.2672 -4.9976,6.0443 -12.9467,11.1576 -21.0165,12.1369 -1.0783,-1.1986 -3.4702,-4.5519 -4.5044,-6.8697z"
   nodetypes="csczcc" />
   <path
   id="path4540"
   class="fil5 str5"
   d="M108.904 39.5162c0.0535,0.3817 -0.2204,0.7032 -0.6124,0.7191 -0.392,0.0154 -0.754,-0.2812 -0.808,-0.6623 -0.0539,-0.3812 0.2205,-0.7033 0.6125,-0.7187 0.392,-0.0159 0.7534,0.2807 0.8074,0.6619l0.0005 0z"
   type="arc"
   cx="427.85715"
   cy="434.50504"
   rx="13.571428"
   ry="13.571428" />
   <path
   id="path4542"
   class="fil5 str5"
   d="M112.937 39.1026c0.0534,0.3817 -0.2204,0.7038 -0.6125,0.7192 -0.392,0.0159 -0.7539,-0.2806 -0.808,-0.6624 -0.0539,-0.3812 0.2205,-0.7033 0.6125,-0.7186 0.392,-0.0159 0.7534,0.2806 0.8075,0.6624l0.0005 -0.0006z"
   type="arc"
   cx="427.85715"
   cy="434.50504"
   rx="13.571428"
   ry="13.571428" />
   <path
   id="path4544"
   class="fil5 str5"
   d="M117.089 38.0534c0.0534,0.3811 -0.2204,0.7032 -0.6124,0.7191 -0.3921,0.0154 -0.7541,-0.2812 -0.808,-0.6623 -0.054,-0.3812 0.2204,-0.7033 0.6124,-0.7192 0.3921,-0.0154 0.7535,0.2812 0.8074,0.6624l0.0006 0z"
   type="arc"
   cx="427.85715"
   cy="434.50504"
   rx="13.571428"
   ry="13.571428" />
   <path
   id="path4546"
   class="fil5 str5"
   d="M121.516 36.6366c0.0534,0.3817 -0.2204,0.7038 -0.6125,0.7192 -0.392,0.0159 -0.754,-0.2807 -0.8079,-0.6618 -0.054,-0.3818 0.2204,-0.7033 0.6124,-0.7192 0.392,-0.0159 0.7534,0.2806 0.8074,0.6624l0.0006 -0.0006z"
   type="arc"
   cx="427.85715"
   cy="434.50504"
   rx="13.571428"
   ry="13.571428" />
   <path
   id="_38629384"
   class="fil4 str1"
   d="M142.904 57.7057c-3.2729,1.0261 -7.039,3.7053 -10.6428,7.0905" />
   <path
   id="_38627944"
   class="fil4 str1"
   d="M127.685 67.2363c-4.9584,3.4056 -9.7141,4.0326 -12.9606,4.209" />
   <path
   id="_38626752"
   class="fil4 str1"
   d="M110.317 70.0726c-1.9298,-2.2065 -2.9869,-6.5682 -2.1985,-8.1596" />
   <path
   id="_38625408"
   class="fil4 str1"
   d="M105.789 62.8143c-1.9879,0.9919 -3.8191,12.7589 2.0588,17.1027 2.0166,1.4901 4.775,2.0318 7.6869,2.2419 5.5594,0.4013 11.7766,-1.0199 15.1457,-3.671 3.8561,-3.0341 5.5544,-7.8664 7.6909,-11.7369 1.0626,-1.925 3.9743,-7.4657 7.3086,-7.8124" />
   <path
   id="_38624032"
   class="fil4 str1"
   d="M120.961 50.5605c3.447,0.3727 7.4758,-0.0039 11.126,-1.3427" />
   <circle
   id="_38623088"
   class="fil5 str1"
   cx="107.453"
   cy="82.9747"
   r="1.25386" />
   <circle
   id="_38622144"
   class="fil5 str1"
   cx="115.085"
   cy="84.6039"
   r="1.25386" />
   <circle
   id="_38621200"
   class="fil5 str1"
   cx="123.381"
   cy="84.1577"
   r="1.25386" />
   <circle
   id="_38620112"
   class="fil5 str1"
   cx="131.073"
   cy="81.4949"
   r="1.25386" />
   <circle
   id="_38619168"
   class="fil5 str1"
   cx="136.498"
   cy="75.7749"
   r="1.25386" />
   <circle
   id="_38618224"
   class="fil5 str1"
   cx="140.344"
   cy="68.6741"
   r="1.25386" />
   <circle
   id="_38617144"
   class="fil5 str1"
   cx="144.289"
   cy="62.4609"
   r="1.25386" />
   <circle
   id="_38616200"
   class="fil5 str1"
   cx="102.583"
   cy="76.5896"
   r="1.25386" />
   <circle
   id="_38615264"
   class="fil5 str1"
   cx="101.734"
   cy="68.4276"
   r="1.25386" />
   <path
   id="path2974"
   class="fil5 str1"
   d="M137.108 29.516c0,2.2954 -1.9118,4.1569 -4.2693,4.1569 -2.3575,0 -4.2693,-1.8615 -4.2693,-4.1569 0,-2.2954 1.9118,-4.1569 4.2693,-4.1569 2.3575,0 4.2693,1.8615 4.2693,4.1569l0 0z"
   type="arc"
   cx="57.285549"
   cy="97.556473"
   rx="10.776489"
   ry="10.492897" />
   <path
   id="path2976"
   class="fil5 str1"
   d="M134.973 29.516c0,1.1477 -0.9559,2.0785 -2.1347,2.0785 -1.1787,0 -2.1346,-0.9308 -2.1346,-2.0785 0,-1.1476 0.9559,-2.0784 2.1346,-2.0784 1.1788,0 2.1347,0.9308 2.1347,2.0784z"
   type="arc"
   cx="57.285549"
   cy="97.556473"
   rx="10.776489"
   ry="10.492897" />
  </g>
  <g
   id="_38592192">
   <path
   id="_38608952"
   class="fil4 str1"
   d="M215.297 20.2536c3.9345,-6.6878 8.9778,-19.1018 17.9918,-18.7086 11.8942,0.5192 9.8463,11.2813 9.0599,21.2956 -0.4165,5.3046 -1.2292,10.3352 2.2156,13.6645 -0.9712,1.5291 -7.8279,2.1404 -10.3245,-0.1762 0.4425,4.2964 -1.7661,11.3187 -3.759,14.9048 -3.8474,-2.7867 -6.2052,-7.7264 -8.0173,-11.1002 -5.3486,11.4128 -0.1479,26.6319 10.5944,32.9681 -7.1755,10.5147 -20.2776,0.7498 -23.6378,-5.4258 2.4974,12.1359 1.1249,34.0264 -6.6595,44.4376 -0.325,-11.6893 -5.6706,-15.3633 -9.2313,-23.4353 -2.1975,-4.9825 -1.8035,-9.1183 -0.5201,-14.457 -2.0964,8.5641 -3.7176,13.536 -12.7566,19.0834 -3.257,-14.3695 -0.7744,-23.1588 1.8089,-29.4724 1.0833,-2.6482 5.1423,-9.7826 9.5119,-12.3269 -5.9891,0.954 -12.5212,-1.338 -18.357,-7.2309 11.7279,-1.6417 22.0897,-4.8774 31.0844,-12.748 -4.5507,-1.9362 -6.0819,-5.6969 -5.5716,-10.1433 4.1563,0.5406 14.2553,-0.0703 19.8844,-2.0418 4.4682,-1.5649 10.3566,-4.5918 9.8738,-9.0789 -0.2255,-2.0948 -3.2291,-1.2842 -4.6879,1.8142 -0.6795,1.4437 -1.0604,3.7258 -1.4995,5.7228" />
   <path
   id="_38607648"
   class="fil4 str1"
   d="M221.374 77.205c5.0729,16.9273 13.6834,28.5845 28.5829,40.383 -3.1375,1.2375 -6.9389,1.3743 -9.8435,0.4203 5.4349,5.5248 10.668,8.2704 9.7642,18.2243 -2.163,-3.144 -6.7602,-3.1091 -8.5892,-4.9381 0.1549,0.7534 0.2773,1.5283 0.3648,2.3191 1.4161,12.7566 -5.911,29.6761 -20.7751,29.6761 9.9178,-1.0332 10.9177,-23.5145 6.3871,-32.4874 -0.0526,2.8828 -1.543,7.3571 -3.711,10.3533 -5.0371,-3.2521 -4.0553,-10.5037 -4.4879,-14.0154 -0.7657,1.3405 -4.1386,5.0938 -6.3863,5.7232 -1.2477,-7.5941 1.5406,-11.5483 1.5406,-15.2363 -2.5364,4.713 -6.0839,4.1686 -6.8628,4.7598 -1.0004,-2.7209 2.6786,-12.7763 1.2563,-24.1973" />
   <path
   id="_38606544"
   class="fil4 str1"
   d="M229.498 149.96c-6.5712,0.4827 -14.5059,-5.1579 -15.9101,-11.9998 -1.8122,0.8684 -3.2895,3.0015 -4.0685,5.1793 -2.6334,-3.647 -6.224,-5.9464 -10.2587,-7.6879 -1.9038,7.0745 1.3113,13.2542 4.3416,16.913 -2.5311,0.1417 -5.2976,1.1602 -7.012,2.7916 4.6411,5.3259 17.7506,8.3393 24.2877,8.1331" />
   <path
   id="_38605600"
   class="fil4 str1"
   d="M234.784 10.9644c-2.5537,13.0746 -14.0536,20.914 -21.5566,29.1285 -8.2839,9.0694 -12.6855,14.5055 -12.6855,27.5792 0,10.0858 2.8988,16.5494 2.8988,26.2704" />
   <path
   id="_38604680"
   class="fil4 str1"
   d="M206.853 43.3528c-9.3312,7.4672 -20.3331,23.8485 -21.4206,34.7067" />
   <path
   id="_38603624"
   class="fil4 str1"
   d="M211.866 50.942c-0.0822,5.3818 1.1244,11.2932 6.648,17.3488" />
   <path
   id="_38602904"
   class="fil4 str1"
   d="M218.512 28.0782c-11.7155,9.9178 -21.2011,15.7643 -32.6279,17.7178" />
   <path
   id="_38601960"
   class="fil4 str1"
   d="M204.366 25.5931c5.1469,1.6265 12.1654,-0.6684 14.8691,-1.8532" />
   <path
   id="_38600856"
   class="fil4 str1"
   d="M229.404 30.7848c-1.023,4.305 -1.8101,8.198 -0.8591,13.4718" />
   <path
   id="_38599784"
   class="fil4 str1"
   d="M237.45 17.591c-0.4338,2.1322 -2.5722,9.1048 -0.4096,15.1871" />
   <path
   id="_38598840"
   class="fil4 str1"
   d="M212.854 79.7484c2.6367,12.4222 5.7163,18.608 9.6097,25.9704 4.3515,8.2289 17.3241,27.7662 12.3396,44.3024 -0.5875,1.9498 -1.8919,3.9633 -3.0418,5.4628" />
   <path
   id="_38597928"
   class="fil4 str1"
   d="M221.702 113.46c1.4416,4.9374 2.2333,10.5098 2.2333,16.6599" />
   <path
   id="_38596984"
   class="fil4 str1"
   d="M215.168 103.999c1.2354,7.4179 1.8076,12.7237 1.8076,19.9744" />
   <path
   id="_38596024"
   class="fil4 str1"
   d="M220.862 89.1765c2.5693,9.7657 9.9079,17.0538 16.6303,24.0416" />
   <path
   id="_38595104"
   class="fil4 str1"
   d="M234.148 119.906c2.3853,1.4568 6.9303,3.4986 10.1228,7.9537" />
   <path
   id="_38593992"
   class="fil4 str1"
   d="M204.413 144.671c4.9858,6.3884 14.1042,14.5371 22.1946,12.3211" />
   <path
   id="_38593272"
   class="fil4 str1"
   d="M205.768 155.517c3.3733,1.4991 6.3292,2.621 10.0324,2.621" />
   <path
   id="_38592232"
   class="fil4 str1"
   d="M213.722 146.569c1.2341,2.4769 4.5869,5.3852 7.7728,6.6883" />
  </g>
  <g
   id="_38418448">
   <path
   id="_38588192"
   class="fil4 str1"
   d="M41.6872 20.2536c-3.9344,-6.6878 -8.9778,-19.1018 -17.9917,-18.7086 -11.8943,0.5192 -9.8463,11.2813 -9.06,21.2956 0.4166,5.3046 1.2292,10.3352 -2.2156,13.6645 0.9712,1.5291 7.8279,2.1404 10.3245,-0.1762 -0.4424,4.2964 1.7662,11.3187 3.7591,14.9048 3.8474,-2.7867 6.2051,-7.7264 8.0173,-11.1002 5.3485,11.4128 0.1479,26.6319 -10.5944,32.9681 7.1755,10.5147 20.2776,0.7498 23.6377,-5.4258 -2.4974,12.1359 -1.1248,34.0264 6.6595,44.4376 0.325,-11.6893 5.6707,-15.3633 9.2313,-23.4353 2.1975,-4.9825 1.8036,-9.1183 0.5201,-14.457 2.0965,8.5641 3.7176,13.536 12.7566,19.0834 3.2571,-14.3695 0.7744,-23.1588 -1.8088,-29.4724 -1.0834,-2.6482 -5.1424,-9.7826 -9.5119,-12.3269 5.989,0.954 12.5212,-1.338 18.357,-7.2309 -11.7279,-1.6417 -22.0898,-4.8774 -31.0845,-12.748 4.5508,-1.9362 6.0819,-5.6969 5.5717,-10.1433 -4.1564,0.5406 -14.2553,-0.0703 -19.8845,-2.0418 -4.4681,-1.5649 -10.3565,-4.5918 -9.8738,-9.0789 0.2256,-2.0948 3.2291,-1.2842 4.688,1.8142 0.6795,1.4437 1.0603,3.7258 1.4995,5.7228" />
   <path
   id="_38586720"
   class="fil4 str1"
   d="M27.4862 149.96c6.5712,0.4827 14.5059,-5.1579 15.9101,-11.9998 1.8121,0.8684 3.2895,3.0015 4.0684,5.1793 2.6334,-3.647 6.224,-5.9464 10.2588,-7.6879 1.9038,7.0745 -1.3114,13.2542 -4.3416,16.913 2.5311,0.1417 5.2976,1.1602 7.012,2.7916 -4.6412,5.3259 -17.7507,8.3393 -24.2877,8.1331" />
   <path
   id="_38585776"
   class="fil4 str1"
   d="M22.2009 10.9644c2.5537,13.0746 14.0536,20.914 21.5565,29.1285 8.2839,9.0694 12.6855,14.5055 12.6855,27.5792 0,10.0858 -2.8988,16.5494 -2.8988,26.2704" />
   <path
   id="_38584856"
   class="fil4 str1"
   d="M50.1314 43.3528c9.3311,7.4672 20.3331,23.8485 21.4205,34.7067" />
   <path
   id="_38583904"
   class="fil4 str1"
   d="M45.1189 50.942c0.0822,5.3818 -1.1244,11.2932 -6.648,17.3488" />
   <path
   id="_38583184"
   class="fil4 str1"
   d="M38.4721 28.0782c11.7156,9.9178 21.2012,15.7643 32.6279,17.7178" />
   <path
   id="_38582240"
   class="fil4 str1"
   d="M52.6181 25.5931c-5.1468,1.6265 -12.1654,-0.6684 -14.869,-1.8532" />
   <path
   id="_38581000"
   class="fil4 str1"
   d="M27.5807 30.7848c1.0229,4.305 1.8101,8.198 0.859,13.4718" />
   <path
   id="_38477472"
   class="fil4 str1"
   d="M19.5342 17.591c0.4338,2.1322 2.5722,9.1048 0.4096,15.1871" />
   <path
   id="_38476512"
   class="fil4 str1"
   d="M52.5717 144.671c-4.9858,6.3884 -14.1041,14.5371 -22.1945,12.3211" />
   <path
   id="_38475792"
   class="fil4 str1"
   d="M51.216 155.517c-3.3733,1.4991 -6.3292,2.621 -10.0324,2.621" />
   <path
   id="_38474872"
   class="fil4 str1"
   d="M43.2624 146.569c-1.2342,2.4769 -4.5869,5.3852 -7.7729,6.6883" />
   <path
   id="_38473104"
   class="fil4 str1"
   d="M35.6103 77.205c-5.0729,16.9273 -13.6834,28.5845 -28.5829,40.383 3.1375,1.2375 6.9389,1.3743 9.8435,0.4203 -5.4349,5.5248 -10.668,8.2704 -9.7642,18.2243 2.163,-3.144 6.7602,-3.1091 8.5892,-4.9381 -0.1549,0.7534 -0.2773,1.5283 -0.3648,2.3191 -1.4161,12.7566 5.911,29.6761 20.7751,29.6761 -9.9178,-1.0332 -10.9177,-23.5145 -6.3871,-32.4874 0.0526,2.8828 1.543,7.3571 3.711,10.3533 5.0371,-3.2521 4.0553,-10.5037 4.4879,-14.0154 0.7657,1.3405 4.1386,5.0938 6.3863,5.7232 1.2477,-7.5941 -1.5406,-11.5483 -1.5406,-15.2363 2.5364,4.713 6.0839,4.1686 6.8628,4.7598 1.0004,-2.7209 -2.6786,-12.7763 -1.2563,-24.1973" />
   <path
   id="_38472160"
   class="fil4 str1"
   d="M44.1305 79.7484c-2.6367,12.4222 -5.7163,18.608 -9.6097,25.9704 -4.3515,8.2289 -17.3241,27.7662 -12.3396,44.3024 0.5875,1.9498 1.8919,3.9633 3.0418,5.4628" />
   <path
   id="_38420408"
   class="fil4 str1"
   d="M35.2825 113.46c-1.4416,4.9374 -2.2333,10.5098 -2.2333,16.6599" />
   <path
   id="_38420272"
   class="fil4 str1"
   d="M41.8163 103.999c-1.2354,7.4179 -1.8076,12.7237 -1.8076,19.9744" />
   <path
   id="_38417856"
   class="fil4 str1"
   d="M36.1222 89.1765c-2.5693,9.7657 -9.9079,17.0538 -16.6303,24.0416" />
   <path
   id="_38418528"
   class="fil4 str1"
   d="M22.8361 119.906c-2.3853,1.4568 -6.9303,3.4986 -10.1228,7.9537" />
  </g>
 </g>
</svg>